<svg width="112" height="29" viewBox="0 0 112 29" fill="none" xmlns="http://www.w3.org/2000/svg">
<path d="M0.322864 20.3155C0.22928 20.3155 0.149734 20.2882 0.0842254 20.2337C0.0280751 20.17 0 20.0927 0 20.0018V11.0946C0 10.9946 0.0280751 10.9173 0.0842254 10.8627C0.149734 10.7991 0.22928 10.7673 0.322864 10.7673H6.12038C6.21397 10.7673 6.28884 10.7991 6.34499 10.8627C6.41049 10.9173 6.44325 10.9946 6.44325 11.0946V11.613C6.44325 11.7039 6.41517 11.7812 6.35902 11.8449C6.30287 11.8994 6.22333 11.9267 6.12038 11.9267H1.34761V14.9139H5.81156C5.90514 14.9139 5.98001 14.9458 6.03616 15.0094C6.10167 15.064 6.13442 15.1413 6.13442 15.2413V15.746C6.13442 15.8369 6.10167 15.9142 6.03616 15.9779C5.98001 16.0324 5.90514 16.0597 5.81156 16.0597H1.34761V19.1561H6.23269C6.33563 19.1561 6.41517 19.1834 6.47132 19.2379C6.52747 19.2925 6.55555 19.3698 6.55555 19.4698V20.0018C6.55555 20.0927 6.5228 20.17 6.45729 20.2337C6.40114 20.2882 6.32627 20.3155 6.23269 20.3155H0.322864Z" fill="#363636"/>
<path d="M17.8901 20.3155C17.8153 20.3155 17.7451 20.2882 17.6796 20.2337C17.6234 20.1791 17.5953 20.1155 17.5953 20.0427C17.5953 19.9791 17.6141 19.92 17.6515 19.8654L20.8661 15.4596L17.8059 11.2174C17.7778 11.1719 17.7638 11.1128 17.7638 11.0401C17.7638 10.9673 17.7919 10.9037 17.848 10.8491C17.9042 10.7945 17.9697 10.7673 18.0445 10.7673H18.8868C19.0272 10.7673 19.1535 10.8446 19.2658 10.9991L21.7364 14.4092L24.193 10.9991C24.2866 10.8446 24.4082 10.7673 24.558 10.7673H25.3581C25.433 10.7673 25.4985 10.7945 25.5546 10.8491C25.6108 10.9037 25.6389 10.9673 25.6389 11.0401C25.6389 11.1219 25.6202 11.181 25.5827 11.2174L22.5646 15.4732L25.7652 19.8654C25.8026 19.92 25.8214 19.9791 25.8214 20.0427C25.8214 20.1155 25.7933 20.1791 25.7371 20.2337C25.681 20.2882 25.6108 20.3155 25.5266 20.3155H24.6703C24.5299 20.3155 24.4036 20.2382 24.2913 20.0836L21.6803 16.5508L19.0833 20.0836C18.9897 20.2382 18.8681 20.3155 18.7183 20.3155H17.8901Z" fill="#363636"/>
<path d="M36.6698 20.3155C36.5949 20.3155 36.5294 20.2882 36.4733 20.2337C36.4171 20.1791 36.389 20.1155 36.389 20.0427C36.389 19.97 36.3937 19.92 36.4031 19.8927L39.8844 11.0674C39.9593 10.8673 40.109 10.7673 40.3336 10.7673H41.2881C41.5127 10.7673 41.6625 10.8673 41.7373 11.0674L45.2046 19.8927L45.2327 20.0427C45.2327 20.1155 45.2046 20.1791 45.1485 20.2337C45.0923 20.2882 45.0268 20.3155 44.952 20.3155H44.236C44.1331 20.3155 44.0535 20.2928 43.9974 20.2473C43.9412 20.1928 43.9038 20.1382 43.8851 20.0836L43.113 18.1467H38.5087L37.7366 20.0836C37.7179 20.1382 37.6758 20.1928 37.6103 20.2473C37.5541 20.2928 37.4793 20.3155 37.3857 20.3155H36.6698ZM42.7059 16.9736L40.8109 12.1313L38.9158 16.9736H42.7059Z" fill="#363636"/>
<path d="M60.0596 20.4519C58.8055 20.4519 57.851 20.1246 57.1959 19.4698C56.5502 18.8151 56.2039 17.9103 56.1571 16.7554C56.1478 16.5099 56.1431 16.1097 56.1431 15.555C56.1431 14.9912 56.1478 14.582 56.1571 14.3274C56.2039 13.1816 56.5549 12.2813 57.2099 11.6266C57.865 10.9628 58.8149 10.6309 60.0596 10.6309C60.8925 10.6309 61.599 10.7764 62.1792 11.0674C62.7595 11.3493 63.1993 11.7221 63.4988 12.1859C63.7982 12.6496 63.962 13.1452 63.9901 13.6727V13.6999C63.9901 13.7727 63.9573 13.8363 63.8918 13.8909C63.8357 13.9364 63.7702 13.9591 63.6953 13.9591H62.9232C62.7361 13.9591 62.6191 13.8545 62.5723 13.6454C62.4132 12.9634 62.1278 12.486 61.716 12.2131C61.3042 11.9312 60.7521 11.7903 60.0596 11.7903C58.4499 11.7903 57.617 12.6587 57.5609 14.3956C57.5515 14.6411 57.5468 15.0185 57.5468 15.5278C57.5468 16.037 57.5515 16.4235 57.5609 16.6872C57.617 18.4241 58.4499 19.2925 60.0596 19.2925C60.7521 19.2925 61.3042 19.1561 61.716 18.8833C62.1371 18.6014 62.4226 18.1194 62.5723 17.4374C62.6004 17.3192 62.6425 17.2373 62.6986 17.1919C62.7548 17.1464 62.8297 17.1237 62.9232 17.1237H63.6953C63.7795 17.1237 63.8497 17.151 63.9059 17.2055C63.9714 17.251 63.9994 17.3146 63.9901 17.3965C63.962 17.933 63.7982 18.4332 63.4988 18.8969C63.1993 19.3607 62.7595 19.7381 62.1792 20.0291C61.599 20.311 60.8925 20.4519 60.0596 20.4519Z" fill="#363636"/>
<path d="M78.3086 20.3155C78.2151 20.3155 78.1355 20.2882 78.07 20.2337C78.0139 20.17 77.9858 20.0927 77.9858 20.0018V11.9813H75.2906C75.197 11.9813 75.1174 11.954 75.0519 11.8994C74.9958 11.8358 74.9677 11.7585 74.9677 11.6675V11.0946C74.9677 11.0037 74.9958 10.9264 75.0519 10.8627C75.1174 10.7991 75.197 10.7673 75.2906 10.7673H82.0567C82.1596 10.7673 82.2392 10.7991 82.2953 10.8627C82.3608 10.9173 82.3936 10.9946 82.3936 11.0946V11.6675C82.3936 11.7585 82.3608 11.8358 82.2953 11.8994C82.2298 11.954 82.1503 11.9813 82.0567 11.9813H79.3755V20.0018C79.3755 20.0927 79.3427 20.17 79.2772 20.2337C79.2117 20.2882 79.1322 20.3155 79.0386 20.3155H78.3086Z" fill="#363636"/>
<path d="M92.2323 20.3155C92.1574 20.3155 92.0919 20.2882 92.0358 20.2337C91.9796 20.1791 91.9515 20.1155 91.9515 20.0427C91.9515 19.97 91.9562 19.92 91.9656 19.8927L95.4469 11.0674C95.5217 10.8673 95.6715 10.7673 95.8961 10.7673H96.8506C97.0752 10.7673 97.225 10.8673 97.2998 11.0674L100.767 19.8927L100.795 20.0427C100.795 20.1155 100.767 20.1791 100.711 20.2337C100.655 20.2882 100.589 20.3155 100.514 20.3155H99.7985C99.6956 20.3155 99.616 20.2928 99.5599 20.2473C99.5037 20.1928 99.4663 20.1382 99.4476 20.0836L98.6755 18.1467H94.0712L93.2991 20.0836C93.2804 20.1382 93.2383 20.1928 93.1728 20.2473C93.1166 20.2928 93.0418 20.3155 92.9482 20.3155H92.2323ZM98.2684 16.9736L96.3734 12.1313L94.4783 16.9736H98.2684Z" fill="#363636"/>
<path d="M11.8887 5.46216H32.0477V25.6212H11.8887V5.46216Z" fill="#EC1E1E"/>
<path d="M27.6879 9.81568C27.5662 9.69393 27.3692 9.6924 27.2456 9.81224L26.1515 10.8729C25.4546 11.5485 24.3605 11.5307 23.4505 11.1932C22.3495 10.7849 21.1268 10.8005 20.0347 11.2411C19.2238 11.5682 18.2247 11.5326 17.6508 10.8729L16.7612 9.85054C16.6416 9.71303 16.4305 9.7057 16.3016 9.83459C16.1848 9.95142 16.1783 10.1387 16.2867 10.2634L17.2051 11.3189C17.801 12.0038 17.7575 13.016 17.4179 13.8579C16.9619 14.9882 16.9605 16.2593 17.4149 17.3909C17.7552 18.2383 17.8016 19.2557 17.2051 19.9471L16.2849 21.0136C16.1774 21.1383 16.1842 21.3249 16.3007 21.4413C16.4299 21.5705 16.6417 21.5627 16.761 21.4244L17.6508 20.3931C18.224 19.7286 19.2275 19.6906 20.0419 20.0175C21.1513 20.4629 22.3957 20.4708 23.5103 20.0401C24.3707 19.7076 25.4186 19.7205 26.0499 20.3931L27.0357 21.4435C27.1575 21.5732 27.3624 21.5765 27.4883 21.4506C27.6086 21.3303 27.6116 21.1363 27.4952 21.0122L26.4956 19.9472C25.8535 19.263 25.8784 18.2089 26.2166 17.3337C26.632 16.2587 26.64 15.0621 26.2394 13.982C25.9047 13.0796 25.9063 11.9886 26.5973 11.3187L27.6844 10.2649C27.8108 10.1424 27.8124 9.94013 27.6879 9.81568ZM25.5 17.4003C25.2507 17.9212 24.5683 17.9459 24.16 17.5375L23.6817 17.0593C23.5586 16.9361 23.359 16.9361 23.2359 17.0593C23.1128 17.1824 23.1128 17.382 23.2359 17.5051L23.7142 17.9834C24.1225 18.3917 24.0979 19.0741 23.577 19.3233C22.46 19.8578 21.1491 19.8578 20.0321 19.3233C19.5113 19.0741 19.4866 18.3917 19.8949 17.9834L20.3732 17.5051C20.4963 17.382 20.4963 17.1824 20.3732 17.0593C20.2501 16.9361 20.0505 16.9361 19.9274 17.0593L19.4491 17.5375C19.0408 17.9459 18.3584 17.9212 18.1092 17.4003C17.5747 16.2833 17.5747 14.9725 18.1092 13.8555C18.3584 13.3346 19.0408 13.31 19.4491 13.7183L19.9274 14.1966C20.0505 14.3197 20.2501 14.3197 20.3732 14.1966C20.4963 14.0735 20.4963 13.8739 20.3732 13.7508L19.8949 13.2725C19.4866 12.8642 19.5113 12.1818 20.0321 11.9325C21.1491 11.398 22.46 11.398 23.577 11.9325C24.0979 12.1818 24.1225 12.8642 23.7142 13.2725L23.2359 13.7508C23.1128 13.8739 23.1128 14.0735 23.2359 14.1966C23.359 14.3197 23.5586 14.3197 23.6817 14.1966L24.16 13.7183C24.5683 13.31 25.2507 13.3346 25.5 13.8555C26.0344 14.9725 26.0344 16.2833 25.5 17.4003Z" fill="white"/>
<path fill-rule="evenodd" clip-rule="evenodd" d="M26.0865 10.8059L27.1807 9.74525C27.3409 9.58993 27.5961 9.59191 27.7539 9.7497C27.9152 9.91099 27.9132 10.1731 27.7494 10.3319L26.6623 11.3857C26.01 12.018 25.9979 13.0624 26.3269 13.9496C26.7354 15.051 26.7273 16.271 26.3036 17.3673C25.9712 18.2276 25.9572 19.2372 26.5637 19.8833L27.5633 20.9483C27.7142 21.1091 27.7102 21.3607 27.5543 21.5166C27.3912 21.6797 27.1255 21.6755 26.9677 21.5073L25.9818 20.457C25.388 19.8243 24.3876 19.8011 23.544 20.1271C22.4073 20.5664 21.1385 20.5583 20.0071 20.1041C19.2117 19.7848 18.2579 19.8322 17.7214 20.454L16.8317 21.4853C16.6769 21.6648 16.4023 21.6749 16.2347 21.5073C16.0837 21.3563 16.0748 21.1144 16.2143 20.9527L17.1345 19.8861C17.698 19.233 17.6628 18.2583 17.3284 17.4257C16.865 16.2717 16.8664 14.9756 17.3314 13.823C17.665 12.996 17.6973 12.0268 17.1347 11.3802L16.2164 10.3246C16.0757 10.163 16.0842 9.92011 16.2356 9.76861C16.4028 9.60148 16.6765 9.61098 16.8317 9.78929L17.7212 10.8117C18.2583 11.429 19.2079 11.474 19.9998 11.1545C21.1135 10.7053 22.3603 10.6894 23.4829 11.1057C24.3786 11.4379 25.4276 11.4447 26.0865 10.8059ZM23.7477 16.9933L24.226 17.4716C24.4114 17.657 24.6575 17.7424 24.8822 17.7244C25.105 17.7065 25.3068 17.5878 25.4158 17.36C25.9381 16.2685 25.9381 14.9873 25.4158 13.8958C25.3068 13.668 25.105 13.5493 24.8822 13.5315C24.6575 13.5135 24.4114 13.5989 24.226 13.7843L23.7477 14.2626C23.5882 14.4221 23.3295 14.4221 23.1699 14.2626C23.0104 14.103 23.0104 13.8443 23.1699 13.6848L23.6482 13.2065C23.8336 13.0211 23.919 12.775 23.901 12.5503C23.8832 12.3275 23.7644 12.1257 23.5367 12.0167C22.4452 11.4944 21.164 11.4944 20.0724 12.0167C19.8447 12.1257 19.726 12.3275 19.7081 12.5503C19.6901 12.775 19.7755 13.0211 19.9609 13.2065L20.4392 13.6848C20.5988 13.8443 20.5988 14.103 20.4392 14.2626C20.2797 14.4221 20.021 14.4221 19.8614 14.2626L19.3832 13.7843C19.1977 13.5989 18.9517 13.5135 18.7269 13.5315C18.5042 13.5493 18.3023 13.668 18.1933 13.8958C17.671 14.9873 17.671 16.2685 18.1933 17.3601C18.3023 17.5878 18.5042 17.7065 18.7269 17.7244C18.9517 17.7424 19.1978 17.657 19.3832 17.4716L19.8614 16.9933C20.021 16.8337 20.2797 16.8337 20.4392 16.9933C20.5988 17.1528 20.5988 17.4115 20.4392 17.5711L19.9609 18.0493C19.7755 18.2347 19.6901 18.4808 19.7081 18.7055C19.726 18.9283 19.8447 19.1302 20.0724 19.2391C21.164 19.7614 22.4452 19.7614 23.5367 19.2391C23.7644 19.1302 23.8832 18.9283 23.901 18.7055C23.919 18.4808 23.8336 18.2347 23.6482 18.0493L23.1699 17.5711C23.0104 17.4115 23.0104 17.1528 23.1699 16.9933C23.3295 16.8337 23.5882 16.8337 23.7477 16.9933ZM27.2456 9.81224C27.3693 9.6924 27.5662 9.69393 27.6879 9.81568C27.8124 9.94013 27.8108 10.1424 27.6844 10.2649L26.5974 11.3187C25.9063 11.9886 25.9047 13.0796 26.2394 13.982C26.64 15.0621 26.632 16.2587 26.2166 17.3337C25.8784 18.2089 25.8535 19.263 26.4956 19.9472L27.4952 21.0122C27.6117 21.1363 27.6086 21.3303 27.4883 21.4506C27.3625 21.5765 27.1575 21.5732 27.0357 21.4435L26.0499 20.3931C25.4186 19.7205 24.3707 19.7076 23.5103 20.0401C22.3957 20.4708 21.1513 20.4629 20.0419 20.0175C19.2275 19.6906 18.2241 19.7286 17.6508 20.3931L16.761 21.4244C16.6417 21.5627 16.4299 21.5705 16.3007 21.4413C16.1843 21.3249 16.1774 21.1383 16.285 21.0136L17.2051 19.9471C17.8016 19.2557 17.7553 18.2383 17.415 17.3909C16.9605 16.2593 16.9619 14.9882 17.4179 13.8579C17.7576 13.016 17.801 12.0038 17.2051 11.3189L16.2868 10.2634C16.1783 10.1387 16.1848 9.95142 16.3016 9.83459C16.4305 9.7057 16.6416 9.71303 16.7613 9.85054L17.6508 10.8729C18.2248 11.5326 19.2238 11.5682 20.0347 11.2411C21.1268 10.8005 22.3495 10.7849 23.4505 11.1932C24.3605 11.5307 25.4546 11.5485 26.1515 10.8729L27.2456 9.81224ZM24.16 17.5375C24.5683 17.9459 25.2507 17.9212 25.5 17.4003C26.0345 16.2833 26.0345 14.9725 25.5 13.8555C25.2507 13.3346 24.5683 13.31 24.16 13.7183L23.6817 14.1966C23.5586 14.3197 23.359 14.3197 23.2359 14.1966C23.1128 14.0735 23.1128 13.8739 23.2359 13.7508L23.7142 13.2725C24.1225 12.8642 24.0979 12.1818 23.577 11.9325C22.46 11.398 21.1492 11.398 20.0322 11.9325C19.5113 12.1818 19.4866 12.8642 19.895 13.2725L20.3732 13.7508C20.4964 13.8739 20.4964 14.0735 20.3732 14.1966C20.2501 14.3197 20.0505 14.3197 19.9274 14.1966L19.4491 13.7183C19.0408 13.31 18.3584 13.3346 18.1092 13.8555C17.5747 14.9725 17.5747 16.2833 18.1092 17.4003C18.3584 17.9212 19.0408 17.9459 19.4491 17.5375L19.9274 17.0593C20.0505 16.9361 20.2501 16.9361 20.3732 17.0593C20.4964 17.1824 20.4964 17.382 20.3732 17.5051L19.895 17.9834C19.4866 18.3917 19.5113 19.0741 20.0322 19.3233C21.1492 19.8578 22.46 19.8578 23.577 19.3233C24.0979 19.0741 24.1225 18.3917 23.7142 17.9834L23.2359 17.5051C23.1128 17.382 23.1128 17.1824 23.2359 17.0593C23.359 16.9361 23.5586 16.9361 23.6817 17.0593L24.16 17.5375Z" fill="white"/>
<path d="M21.1928 15.5417C21.1928 15.3989 21.3085 15.2832 21.4513 15.2832C21.594 15.2832 21.7097 15.3989 21.7097 15.5417C21.7097 15.6844 21.594 15.8001 21.4513 15.8001C21.3085 15.8001 21.1928 15.6844 21.1928 15.5417Z" fill="white"/>
<path fill-rule="evenodd" clip-rule="evenodd" d="M21.4513 15.8001C21.3085 15.8001 21.1928 15.6844 21.1928 15.5417C21.1928 15.3989 21.3085 15.2832 21.4513 15.2832C21.594 15.2832 21.7097 15.3989 21.7097 15.5417C21.7097 15.6844 21.594 15.8001 21.4513 15.8001ZM21.4513 15.3422C21.3411 15.3422 21.2518 15.4315 21.2518 15.5417C21.2518 15.6518 21.3411 15.7411 21.4513 15.7411C21.5614 15.7411 21.6507 15.6518 21.6507 15.5417C21.6507 15.4315 21.5614 15.3422 21.4513 15.3422Z" fill="white"/>
<path d="M111 0L111 29" stroke="black" stroke-width="0.5"/>
</svg>
