<svg width="108" height="10" viewBox="0 0 108 10" fill="none" xmlns="http://www.w3.org/2000/svg">
<path d="M2.01172 6.86035C2.29818 6.86035 2.52767 6.77246 2.7002 6.59668C2.87272 6.41764 2.96712 6.16374 2.9834 5.83496H3.79883C3.7793 6.34277 3.59863 6.76432 3.25684 7.09961C2.91829 7.43164 2.50326 7.59766 2.01172 7.59766C1.35742 7.59766 0.857747 7.39258 0.512695 6.98242C0.170898 6.56901 0 5.9554 0 5.1416V4.56055C0 3.76302 0.170898 3.15755 0.512695 2.74414C0.854492 2.32747 1.35254 2.11914 2.00684 2.11914C2.5472 2.11914 2.97526 2.29004 3.29102 2.63184C3.61003 2.97363 3.7793 3.44076 3.79883 4.0332H2.9834C2.96387 3.64258 2.86947 3.34961 2.7002 3.1543C2.53418 2.95898 2.30306 2.86133 2.00684 2.86133C1.62272 2.86133 1.33789 2.98828 1.15234 3.24219C0.966797 3.49284 0.870768 3.90625 0.864258 4.48242V5.15625C0.864258 5.77799 0.955404 6.21745 1.1377 6.47461C1.32324 6.73177 1.61458 6.86035 2.01172 6.86035Z" fill="black"/>
<path d="M6.06426 4.61426C6.06426 3.84603 6.2498 3.23893 6.6209 2.79297C6.99525 2.34375 7.48841 2.11914 8.10039 2.11914C8.71237 2.11914 9.20391 2.33724 9.575 2.77344C9.94935 3.20964 10.1414 3.80371 10.1512 4.55566V5.1123C10.1512 5.87728 9.96562 6.48275 9.59453 6.92871C9.22344 7.37467 8.72865 7.59766 8.11016 7.59766C7.49818 7.59766 7.00664 7.38118 6.63555 6.94824C6.26771 6.5153 6.07728 5.92936 6.06426 5.19043V4.61426ZM6.92852 5.1123C6.92852 5.65592 7.03431 6.08398 7.2459 6.39648C7.46074 6.70573 7.74883 6.86035 8.11016 6.86035C8.87187 6.86035 9.26413 6.31022 9.28691 5.20996V4.61426C9.28691 4.07389 9.17949 3.64746 8.96465 3.33496C8.7498 3.01921 8.46172 2.86133 8.10039 2.86133C7.74557 2.86133 7.46074 3.01921 7.2459 3.33496C7.03431 3.64746 6.92852 4.07227 6.92852 4.60938V5.1123Z" fill="black"/>
<path d="M13.5299 2.2168L13.5543 2.78809C13.8896 2.34212 14.3176 2.11914 14.8385 2.11914C15.7727 2.11914 16.2464 2.74251 16.2594 3.98926V7.5H15.4V4.02832C15.4 3.61491 15.33 3.32194 15.19 3.14941C15.0533 2.97363 14.8466 2.88574 14.5699 2.88574C14.3551 2.88574 14.1614 2.95736 13.9889 3.10059C13.8196 3.24382 13.6829 3.43099 13.5787 3.66211V7.5H12.7145V2.2168H13.5299Z" fill="black"/>
<path d="M21.5766 6.14746C21.5766 5.96191 21.5066 5.80241 21.3666 5.66895C21.2266 5.53548 20.9564 5.37923 20.5561 5.2002C20.0906 5.00814 19.7618 4.84375 19.5697 4.70703C19.3809 4.57031 19.2393 4.41569 19.1449 4.24316C19.0505 4.06738 19.0033 3.85905 19.0033 3.61816C19.0033 3.18848 19.1596 2.83203 19.4721 2.54883C19.7878 2.26237 20.1898 2.11914 20.6781 2.11914C21.1924 2.11914 21.6059 2.26888 21.9184 2.56836C22.2309 2.86784 22.3871 3.25195 22.3871 3.7207H21.5277C21.5277 3.48307 21.448 3.28125 21.2885 3.11523C21.129 2.94596 20.9255 2.86133 20.6781 2.86133C20.4242 2.86133 20.224 2.92806 20.0775 3.06152C19.9343 3.19173 19.8627 3.36751 19.8627 3.58887C19.8627 3.76465 19.9148 3.90625 20.0189 4.01367C20.1264 4.12109 20.3819 4.2627 20.7855 4.43848C21.4268 4.68913 21.863 4.9349 22.0941 5.17578C22.3253 5.41341 22.4408 5.71615 22.4408 6.08398C22.4408 6.54297 22.2829 6.91081 21.9672 7.1875C21.6514 7.46094 21.2283 7.59766 20.6977 7.59766C20.1475 7.59766 19.7016 7.43978 19.3598 7.12402C19.018 6.80827 18.8471 6.40788 18.8471 5.92285H19.7162C19.726 6.21582 19.8155 6.44531 19.9848 6.61133C20.154 6.77734 20.3917 6.86035 20.6977 6.86035C20.9841 6.86035 21.2022 6.79688 21.352 6.66992C21.5017 6.53971 21.5766 6.36556 21.5766 6.14746Z" fill="black"/>
<path d="M26.1516 0.9375V2.2168H26.9475V2.91504H26.1516V6.19141C26.1516 6.39974 26.1857 6.55762 26.2541 6.66504C26.3225 6.77246 26.4396 6.82617 26.6057 6.82617C26.7196 6.82617 26.8352 6.80664 26.9523 6.76758L26.9426 7.5C26.7473 7.5651 26.5471 7.59766 26.342 7.59766C26.0002 7.59766 25.7398 7.47559 25.5607 7.23145C25.3817 6.9873 25.2922 6.64225 25.2922 6.19629V2.91504H24.4865V2.2168H25.2922V0.9375H26.1516Z" fill="black"/>
<path d="M31.6104 3.02734C31.4899 3.00456 31.3597 2.99316 31.2197 2.99316C30.777 2.99316 30.4678 3.23568 30.292 3.7207V7.5H29.4277V2.2168H30.2676L30.2822 2.75391C30.5133 2.33073 30.8405 2.11914 31.2637 2.11914C31.4004 2.11914 31.5143 2.14193 31.6055 2.1875L31.6104 3.02734Z" fill="black"/>
<path d="M36.6199 7.03613C36.3335 7.41048 35.9152 7.59766 35.365 7.59766C34.8865 7.59766 34.5252 7.43327 34.2811 7.10449C34.0369 6.77246 33.9132 6.29069 33.91 5.65918V2.2168H34.7693V5.5957C34.7693 6.41927 35.0167 6.83105 35.5115 6.83105C36.0356 6.83105 36.3969 6.59668 36.5955 6.12793V2.2168H37.4598V7.5H36.6395L36.6199 7.03613Z" fill="black"/>
<path d="M41.1412 7.5H40.277V2.2168H41.1412V7.5ZM41.2096 0.81543C41.2096 0.961914 41.1689 1.08398 41.0875 1.18164C41.0061 1.2793 40.8824 1.32812 40.7164 1.32812C40.5536 1.32812 40.4316 1.2793 40.3502 1.18164C40.2688 1.08398 40.2281 0.961914 40.2281 0.81543C40.2281 0.668945 40.2688 0.545247 40.3502 0.444336C40.4316 0.343424 40.5536 0.292969 40.7164 0.292969C40.8792 0.292969 41.0012 0.345052 41.0826 0.449219C41.1673 0.55013 41.2096 0.672201 41.2096 0.81543Z" fill="black"/>
<path d="M46.1361 3.02734C46.0157 3.00456 45.8855 2.99316 45.7455 2.99316C45.3028 2.99316 44.9936 3.23568 44.8178 3.7207V7.5H43.9535V2.2168H44.7934L44.808 2.75391C45.0391 2.33073 45.3663 2.11914 45.7895 2.11914C45.9262 2.11914 46.0401 2.14193 46.1312 2.1875L46.1361 3.02734Z" fill="black"/>
<path d="M53.1279 7.5H52.2637V2.2168H53.1279V7.5ZM53.1963 0.81543C53.1963 0.961914 53.1556 1.08398 53.0742 1.18164C52.9928 1.2793 52.8691 1.32812 52.7031 1.32812C52.5404 1.32812 52.4183 1.2793 52.3369 1.18164C52.2555 1.08398 52.2148 0.961914 52.2148 0.81543C52.2148 0.668945 52.2555 0.545247 52.3369 0.444336C52.4183 0.343424 52.5404 0.292969 52.7031 0.292969C52.8659 0.292969 52.988 0.345052 53.0693 0.449219C53.154 0.55013 53.1963 0.672201 53.1963 0.81543Z" fill="black"/>
<path d="M56.7557 2.2168L56.7801 2.78809C57.1154 2.34212 57.5434 2.11914 58.0643 2.11914C58.9985 2.11914 59.4721 2.74251 59.4852 3.98926V7.5H58.6258V4.02832C58.6258 3.61491 58.5558 3.32194 58.4158 3.14941C58.2791 2.97363 58.0724 2.88574 57.7957 2.88574C57.5809 2.88574 57.3872 2.95736 57.2146 3.10059C57.0454 3.24382 56.9087 3.43099 56.8045 3.66211V7.5H55.9402V2.2168H56.7557Z" fill="black"/>
<path d="M63.3668 0.9375V2.2168H64.1627V2.91504H63.3668V6.19141C63.3668 6.39974 63.401 6.55762 63.4693 6.66504C63.5377 6.77246 63.6549 6.82617 63.8209 6.82617C63.9348 6.82617 64.0504 6.80664 64.1676 6.76758L64.1578 7.5C63.9625 7.5651 63.7623 7.59766 63.5572 7.59766C63.2154 7.59766 62.955 7.47559 62.776 7.23145C62.5969 6.9873 62.5074 6.64225 62.5074 6.19629V2.91504H61.7018V2.2168H62.5074V0.9375H63.3668Z" fill="black"/>
<path d="M68.5326 7.59766C67.8751 7.59766 67.3705 7.40234 67.0189 7.01172C66.6674 6.61784 66.4883 6.04167 66.4818 5.2832V4.64355C66.4818 3.85579 66.6527 3.23893 66.9945 2.79297C67.3396 2.34375 67.8197 2.11914 68.435 2.11914C69.0534 2.11914 69.5157 2.31608 69.8217 2.70996C70.1277 3.10384 70.2839 3.71745 70.2904 4.55078V5.11719H67.3412V5.23926C67.3412 5.80566 67.447 6.21745 67.6586 6.47461C67.8734 6.73177 68.1811 6.86035 68.5814 6.86035C68.8354 6.86035 69.0583 6.81315 69.2504 6.71875C69.4457 6.62109 69.628 6.4681 69.7973 6.25977L70.2465 6.80664C69.8721 7.33398 69.3008 7.59766 68.5326 7.59766ZM68.435 2.86133C68.0769 2.86133 67.8116 2.98503 67.6391 3.23242C67.4665 3.47656 67.3689 3.85742 67.3461 4.375H69.4262V4.25781C69.4034 3.75651 69.3122 3.39844 69.1527 3.18359C68.9965 2.96875 68.7572 2.86133 68.435 2.86133Z" fill="black"/>
<path d="M73.7131 7.5H72.8488V0H73.7131V7.5Z" fill="black"/>
<path d="M77.458 7.5H76.5938V2.2168H77.458V7.5ZM77.5264 0.81543C77.5264 0.961914 77.4857 1.08398 77.4043 1.18164C77.3229 1.2793 77.1992 1.32812 77.0332 1.32812C76.8704 1.32812 76.7484 1.2793 76.667 1.18164C76.5856 1.08398 76.5449 0.961914 76.5449 0.81543C76.5449 0.668945 76.5856 0.545247 76.667 0.444336C76.7484 0.343424 76.8704 0.292969 77.0332 0.292969C77.196 0.292969 77.318 0.345052 77.3994 0.449219C77.484 0.55013 77.5264 0.672201 77.5264 0.81543Z" fill="black"/>
<path d="M80.0994 4.61914C80.0994 3.79557 80.2492 3.17383 80.5486 2.75391C80.8481 2.33073 81.2859 2.11914 81.8621 2.11914C82.3992 2.11914 82.8077 2.34863 83.0877 2.80762L83.1316 2.2168H83.9129V7.54883C83.9129 8.20312 83.7452 8.70443 83.41 9.05273C83.0747 9.4043 82.6075 9.58008 82.0086 9.58008C81.7482 9.58008 81.4552 9.51497 81.1297 9.38477C80.8074 9.25781 80.5649 9.09993 80.4021 8.91113L80.7537 8.31543C81.1118 8.66699 81.5073 8.84277 81.9402 8.84277C82.6596 8.84277 83.0291 8.45052 83.0486 7.66602V6.97754C82.7687 7.39095 82.3715 7.59766 81.8572 7.59766C81.3103 7.59766 80.8839 7.39258 80.5779 6.98242C80.2719 6.56901 80.1124 5.97656 80.0994 5.20508V4.61914ZM80.9637 5.1123C80.9637 5.70475 81.0499 6.14095 81.2225 6.4209C81.3982 6.69759 81.6847 6.83594 82.0818 6.83594C82.5115 6.83594 82.8338 6.61621 83.0486 6.17676V3.53516C82.824 3.10221 82.505 2.88574 82.0916 2.88574C81.6945 2.88574 81.408 3.02572 81.2322 3.30566C81.0564 3.58236 80.9669 4.00879 80.9637 4.58496V5.1123Z" fill="black"/>
<path d="M88.5416 7.59766C87.8841 7.59766 87.3795 7.40234 87.0279 7.01172C86.6764 6.61784 86.4973 6.04167 86.4908 5.2832V4.64355C86.4908 3.85579 86.6617 3.23893 87.0035 2.79297C87.3486 2.34375 87.8287 2.11914 88.4439 2.11914C89.0624 2.11914 89.5247 2.31608 89.8307 2.70996C90.1367 3.10384 90.2929 3.71745 90.2994 4.55078V5.11719H87.3502V5.23926C87.3502 5.80566 87.456 6.21745 87.6676 6.47461C87.8824 6.73177 88.19 6.86035 88.5904 6.86035C88.8443 6.86035 89.0673 6.81315 89.2594 6.71875C89.4547 6.62109 89.637 6.4681 89.8063 6.25977L90.2555 6.80664C89.8811 7.33398 89.3098 7.59766 88.5416 7.59766ZM88.4439 2.86133C88.0859 2.86133 87.8206 2.98503 87.648 3.23242C87.4755 3.47656 87.3779 3.85742 87.3551 4.375H89.4352V4.25781C89.4124 3.75651 89.3212 3.39844 89.1617 3.18359C89.0055 2.96875 88.7662 2.86133 88.4439 2.86133Z" fill="black"/>
<path d="M93.6049 2.2168L93.6293 2.78809C93.9646 2.34212 94.3926 2.11914 94.9135 2.11914C95.8477 2.11914 96.3214 2.74251 96.3344 3.98926V7.5H95.475V4.02832C95.475 3.61491 95.405 3.32194 95.265 3.14941C95.1283 2.97363 94.9216 2.88574 94.6449 2.88574C94.4301 2.88574 94.2364 2.95736 94.0639 3.10059C93.8946 3.24382 93.7579 3.43099 93.6537 3.66211V7.5H92.7895V2.2168H93.6049Z" fill="black"/>
<path d="M100.216 0.9375V2.2168H101.012V2.91504H100.216V6.19141C100.216 6.39974 100.25 6.55762 100.319 6.66504C100.387 6.77246 100.504 6.82617 100.67 6.82617C100.784 6.82617 100.9 6.80664 101.017 6.76758L101.007 7.5C100.812 7.5651 100.612 7.59766 100.406 7.59766C100.065 7.59766 99.8042 7.47559 99.6252 7.23145C99.4462 6.9873 99.3566 6.64225 99.3566 6.19629V2.91504H98.551V2.2168H99.3566V0.9375H100.216Z" fill="black"/>
<path d="M105.382 7.59766C104.724 7.59766 104.22 7.40234 103.868 7.01172C103.517 6.61784 103.338 6.04167 103.331 5.2832V4.64355C103.331 3.85579 103.502 3.23893 103.844 2.79297C104.189 2.34375 104.669 2.11914 105.284 2.11914C105.903 2.11914 106.365 2.31608 106.671 2.70996C106.977 3.10384 107.133 3.71745 107.14 4.55078V5.11719H104.19V5.23926C104.19 5.80566 104.296 6.21745 104.508 6.47461C104.723 6.73177 105.03 6.86035 105.431 6.86035C105.685 6.86035 105.908 6.81315 106.1 6.71875C106.295 6.62109 106.477 6.4681 106.646 6.25977L107.096 6.80664C106.721 7.33398 106.15 7.59766 105.382 7.59766ZM105.284 2.86133C104.926 2.86133 104.661 2.98503 104.488 3.23242C104.316 3.47656 104.218 3.85742 104.195 4.375H106.275V4.25781C106.253 3.75651 106.161 3.39844 106.002 3.18359C105.846 2.96875 105.606 2.86133 105.284 2.86133Z" fill="black"/>
<path d="M6.06426 4.61426C6.06426 3.84603 6.2498 3.23893 6.6209 2.79297C6.99525 2.34375 7.48841 2.11914 8.10039 2.11914C8.71237 2.11914 9.20391 2.33724 9.575 2.77344C9.94935 3.20964 10.1414 3.80371 10.1512 4.55566V5.1123C10.1512 5.87728 9.96562 6.48275 9.59453 6.92871C9.22344 7.37467 8.72865 7.59766 8.11016 7.59766C7.49818 7.59766 7.00664 7.38118 6.63555 6.94824C6.26771 6.5153 6.07728 5.92936 6.06426 5.19043V4.61426ZM6.92852 5.1123C6.92852 5.65592 7.03431 6.08398 7.2459 6.39648C7.46074 6.70573 7.74883 6.86035 8.11016 6.86035C8.87187 6.86035 9.26413 6.31022 9.28691 5.20996V4.61426C9.28691 4.07389 9.17949 3.64746 8.96465 3.33496C8.7498 3.01921 8.46172 2.86133 8.10039 2.86133C7.74557 2.86133 7.46074 3.01921 7.2459 3.33496C7.03431 3.64746 6.92852 4.07227 6.92852 4.60938V5.1123Z" fill="black"/>
<path d="M13.5299 2.2168L13.5543 2.78809C13.8896 2.34212 14.3176 2.11914 14.8385 2.11914C15.7727 2.11914 16.2464 2.74251 16.2594 3.98926V7.5H15.4V4.02832C15.4 3.61491 15.33 3.32194 15.19 3.14941C15.0533 2.97363 14.8466 2.88574 14.5699 2.88574C14.3551 2.88574 14.1614 2.95736 13.9889 3.10059C13.8196 3.24382 13.6829 3.43099 13.5787 3.66211V7.5H12.7145V2.2168H13.5299Z" fill="black"/>
<path d="M21.5766 6.14746C21.5766 5.96191 21.5066 5.80241 21.3666 5.66895C21.2266 5.53548 20.9564 5.37923 20.5561 5.2002C20.0906 5.00814 19.7618 4.84375 19.5697 4.70703C19.3809 4.57031 19.2393 4.41569 19.1449 4.24316C19.0505 4.06738 19.0033 3.85905 19.0033 3.61816C19.0033 3.18848 19.1596 2.83203 19.4721 2.54883C19.7878 2.26237 20.1898 2.11914 20.6781 2.11914C21.1924 2.11914 21.6059 2.26888 21.9184 2.56836C22.2309 2.86784 22.3871 3.25195 22.3871 3.7207H21.5277C21.5277 3.48307 21.448 3.28125 21.2885 3.11523C21.129 2.94596 20.9255 2.86133 20.6781 2.86133C20.4242 2.86133 20.224 2.92806 20.0775 3.06152C19.9343 3.19173 19.8627 3.36751 19.8627 3.58887C19.8627 3.76465 19.9148 3.90625 20.0189 4.01367C20.1264 4.12109 20.3819 4.2627 20.7855 4.43848C21.4268 4.68913 21.863 4.9349 22.0941 5.17578C22.3253 5.41341 22.4408 5.71615 22.4408 6.08398C22.4408 6.54297 22.2829 6.91081 21.9672 7.1875C21.6514 7.46094 21.2283 7.59766 20.6977 7.59766C20.1475 7.59766 19.7016 7.43978 19.3598 7.12402C19.018 6.80827 18.8471 6.40788 18.8471 5.92285H19.7162C19.726 6.21582 19.8155 6.44531 19.9848 6.61133C20.154 6.77734 20.3917 6.86035 20.6977 6.86035C20.9841 6.86035 21.2022 6.79688 21.352 6.66992C21.5017 6.53971 21.5766 6.36556 21.5766 6.14746Z" fill="black"/>
<path d="M26.1516 0.9375V2.2168H26.9475V2.91504H26.1516V6.19141C26.1516 6.39974 26.1857 6.55762 26.2541 6.66504C26.3225 6.77246 26.4396 6.82617 26.6057 6.82617C26.7196 6.82617 26.8352 6.80664 26.9523 6.76758L26.9426 7.5C26.7473 7.5651 26.5471 7.59766 26.342 7.59766C26.0002 7.59766 25.7398 7.47559 25.5607 7.23145C25.3817 6.9873 25.2922 6.64225 25.2922 6.19629V2.91504H24.4865V2.2168H25.2922V0.9375H26.1516Z" fill="black"/>
<path d="M31.6104 3.02734C31.4899 3.00456 31.3597 2.99316 31.2197 2.99316C30.777 2.99316 30.4678 3.23568 30.292 3.7207V7.5H29.4277V2.2168H30.2676L30.2822 2.75391C30.5133 2.33073 30.8405 2.11914 31.2637 2.11914C31.4004 2.11914 31.5143 2.14193 31.6055 2.1875L31.6104 3.02734Z" fill="black"/>
<path d="M36.6199 7.03613C36.3335 7.41048 35.9152 7.59766 35.365 7.59766C34.8865 7.59766 34.5252 7.43327 34.2811 7.10449C34.0369 6.77246 33.9132 6.29069 33.91 5.65918V2.2168H34.7693V5.5957C34.7693 6.41927 35.0167 6.83105 35.5115 6.83105C36.0356 6.83105 36.3969 6.59668 36.5955 6.12793V2.2168H37.4598V7.5H36.6395L36.6199 7.03613Z" fill="black"/>
<path d="M41.1412 7.5H40.277V2.2168H41.1412V7.5ZM41.2096 0.81543C41.2096 0.961914 41.1689 1.08398 41.0875 1.18164C41.0061 1.2793 40.8824 1.32812 40.7164 1.32812C40.5536 1.32812 40.4316 1.2793 40.3502 1.18164C40.2688 1.08398 40.2281 0.961914 40.2281 0.81543C40.2281 0.668945 40.2688 0.545247 40.3502 0.444336C40.4316 0.343424 40.5536 0.292969 40.7164 0.292969C40.8792 0.292969 41.0012 0.345052 41.0826 0.449219C41.1673 0.55013 41.2096 0.672201 41.2096 0.81543Z" fill="black"/>
<path d="M46.1361 3.02734C46.0157 3.00456 45.8855 2.99316 45.7455 2.99316C45.3028 2.99316 44.9936 3.23568 44.8178 3.7207V7.5H43.9535V2.2168H44.7934L44.808 2.75391C45.0391 2.33073 45.3663 2.11914 45.7895 2.11914C45.9262 2.11914 46.0401 2.14193 46.1312 2.1875L46.1361 3.02734Z" fill="black"/>
<path d="M53.1279 7.5H52.2637V2.2168H53.1279V7.5ZM53.1963 0.81543C53.1963 0.961914 53.1556 1.08398 53.0742 1.18164C52.9928 1.2793 52.8691 1.32812 52.7031 1.32812C52.5404 1.32812 52.4183 1.2793 52.3369 1.18164C52.2555 1.08398 52.2148 0.961914 52.2148 0.81543C52.2148 0.668945 52.2555 0.545247 52.3369 0.444336C52.4183 0.343424 52.5404 0.292969 52.7031 0.292969C52.8659 0.292969 52.988 0.345052 53.0693 0.449219C53.154 0.55013 53.1963 0.672201 53.1963 0.81543Z" fill="black"/>
<path d="M56.7557 2.2168L56.7801 2.78809C57.1154 2.34212 57.5434 2.11914 58.0643 2.11914C58.9985 2.11914 59.4721 2.74251 59.4852 3.98926V7.5H58.6258V4.02832C58.6258 3.61491 58.5558 3.32194 58.4158 3.14941C58.2791 2.97363 58.0724 2.88574 57.7957 2.88574C57.5809 2.88574 57.3872 2.95736 57.2146 3.10059C57.0454 3.24382 56.9087 3.43099 56.8045 3.66211V7.5H55.9402V2.2168H56.7557Z" fill="black"/>
<path d="M63.3668 0.9375V2.2168H64.1627V2.91504H63.3668V6.19141C63.3668 6.39974 63.401 6.55762 63.4693 6.66504C63.5377 6.77246 63.6549 6.82617 63.8209 6.82617C63.9348 6.82617 64.0504 6.80664 64.1676 6.76758L64.1578 7.5C63.9625 7.5651 63.7623 7.59766 63.5572 7.59766C63.2154 7.59766 62.955 7.47559 62.776 7.23145C62.5969 6.9873 62.5074 6.64225 62.5074 6.19629V2.91504H61.7018V2.2168H62.5074V0.9375H63.3668Z" fill="black"/>
<path d="M68.5326 7.59766C67.8751 7.59766 67.3705 7.40234 67.0189 7.01172C66.6674 6.61784 66.4883 6.04167 66.4818 5.2832V4.64355C66.4818 3.85579 66.6527 3.23893 66.9945 2.79297C67.3396 2.34375 67.8197 2.11914 68.435 2.11914C69.0534 2.11914 69.5157 2.31608 69.8217 2.70996C70.1277 3.10384 70.2839 3.71745 70.2904 4.55078V5.11719H67.3412V5.23926C67.3412 5.80566 67.447 6.21745 67.6586 6.47461C67.8734 6.73177 68.1811 6.86035 68.5814 6.86035C68.8354 6.86035 69.0583 6.81315 69.2504 6.71875C69.4457 6.62109 69.628 6.4681 69.7973 6.25977L70.2465 6.80664C69.8721 7.33398 69.3008 7.59766 68.5326 7.59766ZM68.435 2.86133C68.0769 2.86133 67.8116 2.98503 67.6391 3.23242C67.4665 3.47656 67.3689 3.85742 67.3461 4.375H69.4262V4.25781C69.4034 3.75651 69.3122 3.39844 69.1527 3.18359C68.9965 2.96875 68.7572 2.86133 68.435 2.86133Z" fill="black"/>
<path d="M73.7131 7.5H72.8488V0H73.7131V7.5Z" fill="black"/>
<path d="M77.458 7.5H76.5938V2.2168H77.458V7.5ZM77.5264 0.81543C77.5264 0.961914 77.4857 1.08398 77.4043 1.18164C77.3229 1.2793 77.1992 1.32812 77.0332 1.32812C76.8704 1.32812 76.7484 1.2793 76.667 1.18164C76.5856 1.08398 76.5449 0.961914 76.5449 0.81543C76.5449 0.668945 76.5856 0.545247 76.667 0.444336C76.7484 0.343424 76.8704 0.292969 77.0332 0.292969C77.196 0.292969 77.318 0.345052 77.3994 0.449219C77.484 0.55013 77.5264 0.672201 77.5264 0.81543Z" fill="black"/>
<path d="M80.0994 4.61914C80.0994 3.79557 80.2492 3.17383 80.5486 2.75391C80.8481 2.33073 81.2859 2.11914 81.8621 2.11914C82.3992 2.11914 82.8077 2.34863 83.0877 2.80762L83.1316 2.2168H83.9129V7.54883C83.9129 8.20312 83.7452 8.70443 83.41 9.05273C83.0747 9.4043 82.6075 9.58008 82.0086 9.58008C81.7482 9.58008 81.4552 9.51497 81.1297 9.38477C80.8074 9.25781 80.5649 9.09993 80.4021 8.91113L80.7537 8.31543C81.1118 8.66699 81.5073 8.84277 81.9402 8.84277C82.6596 8.84277 83.0291 8.45052 83.0486 7.66602V6.97754C82.7687 7.39095 82.3715 7.59766 81.8572 7.59766C81.3103 7.59766 80.8839 7.39258 80.5779 6.98242C80.2719 6.56901 80.1124 5.97656 80.0994 5.20508V4.61914ZM80.9637 5.1123C80.9637 5.70475 81.0499 6.14095 81.2225 6.4209C81.3982 6.69759 81.6847 6.83594 82.0818 6.83594C82.5115 6.83594 82.8338 6.61621 83.0486 6.17676V3.53516C82.824 3.10221 82.505 2.88574 82.0916 2.88574C81.6945 2.88574 81.408 3.02572 81.2322 3.30566C81.0564 3.58236 80.9669 4.00879 80.9637 4.58496V5.1123Z" fill="black"/>
<path d="M88.5416 7.59766C87.8841 7.59766 87.3795 7.40234 87.0279 7.01172C86.6764 6.61784 86.4973 6.04167 86.4908 5.2832V4.64355C86.4908 3.85579 86.6617 3.23893 87.0035 2.79297C87.3486 2.34375 87.8287 2.11914 88.4439 2.11914C89.0624 2.11914 89.5247 2.31608 89.8307 2.70996C90.1367 3.10384 90.2929 3.71745 90.2994 4.55078V5.11719H87.3502V5.23926C87.3502 5.80566 87.456 6.21745 87.6676 6.47461C87.8824 6.73177 88.19 6.86035 88.5904 6.86035C88.8443 6.86035 89.0673 6.81315 89.2594 6.71875C89.4547 6.62109 89.637 6.4681 89.8063 6.25977L90.2555 6.80664C89.8811 7.33398 89.3098 7.59766 88.5416 7.59766ZM88.4439 2.86133C88.0859 2.86133 87.8206 2.98503 87.648 3.23242C87.4755 3.47656 87.3779 3.85742 87.3551 4.375H89.4352V4.25781C89.4124 3.75651 89.3212 3.39844 89.1617 3.18359C89.0055 2.96875 88.7662 2.86133 88.4439 2.86133Z" fill="black"/>
<path d="M93.6049 2.2168L93.6293 2.78809C93.9646 2.34212 94.3926 2.11914 94.9135 2.11914C95.8477 2.11914 96.3214 2.74251 96.3344 3.98926V7.5H95.475V4.02832C95.475 3.61491 95.405 3.32194 95.265 3.14941C95.1283 2.97363 94.9216 2.88574 94.6449 2.88574C94.4301 2.88574 94.2364 2.95736 94.0639 3.10059C93.8946 3.24382 93.7579 3.43099 93.6537 3.66211V7.5H92.7895V2.2168H93.6049Z" fill="black"/>
<path d="M100.216 0.9375V2.2168H101.012V2.91504H100.216V6.19141C100.216 6.39974 100.25 6.55762 100.319 6.66504C100.387 6.77246 100.504 6.82617 100.67 6.82617C100.784 6.82617 100.9 6.80664 101.017 6.76758L101.007 7.5C100.812 7.5651 100.612 7.59766 100.406 7.59766C100.065 7.59766 99.8042 7.47559 99.6252 7.23145C99.4462 6.9873 99.3566 6.64225 99.3566 6.19629V2.91504H98.551V2.2168H99.3566V0.9375H100.216Z" fill="black"/>
<path d="M105.382 7.59766C104.724 7.59766 104.22 7.40234 103.868 7.01172C103.517 6.61784 103.338 6.04167 103.331 5.2832V4.64355C103.331 3.85579 103.502 3.23893 103.844 2.79297C104.189 2.34375 104.669 2.11914 105.284 2.11914C105.903 2.11914 106.365 2.31608 106.671 2.70996C106.977 3.10384 107.133 3.71745 107.14 4.55078V5.11719H104.19V5.23926C104.19 5.80566 104.296 6.21745 104.508 6.47461C104.723 6.73177 105.03 6.86035 105.431 6.86035C105.685 6.86035 105.908 6.81315 106.1 6.71875C106.295 6.62109 106.477 6.4681 106.646 6.25977L107.096 6.80664C106.721 7.33398 106.15 7.59766 105.382 7.59766ZM105.284 2.86133C104.926 2.86133 104.661 2.98503 104.488 3.23242C104.316 3.47656 104.218 3.85742 104.195 4.375H106.275V4.25781C106.253 3.75651 106.161 3.39844 106.002 3.18359C105.846 2.96875 105.606 2.86133 105.284 2.86133Z" fill="black"/>
</svg>
