<svg width="230" height="29" viewBox="0 0 230 29" fill="none" xmlns="http://www.w3.org/2000/svg">
<path d="M0.322864 20.3155C0.22928 20.3155 0.149734 20.2882 0.0842254 20.2337C0.0280752 20.17 0 20.0927 0 20.0018V11.0946C0 10.9946 0.0280752 10.9173 0.0842254 10.8627C0.149734 10.7991 0.22928 10.7673 0.322864 10.7673H6.12038C6.21397 10.7673 6.28884 10.7991 6.34499 10.8627C6.41049 10.9173 6.44325 10.9946 6.44325 11.0946V11.613C6.44325 11.7039 6.41517 11.7812 6.35902 11.8449C6.30287 11.8994 6.22333 11.9267 6.12038 11.9267H1.34761V14.9139H5.81156C5.90514 14.9139 5.98001 14.9458 6.03616 15.0094C6.10167 15.064 6.13442 15.1413 6.13442 15.2413V15.746C6.13442 15.8369 6.10167 15.9142 6.03616 15.9779C5.98001 16.0324 5.90514 16.0597 5.81156 16.0597H1.34761V19.1561H6.23269C6.33563 19.1561 6.41517 19.1834 6.47132 19.2379C6.52747 19.2925 6.55555 19.3698 6.55555 19.4698V20.0018C6.55555 20.0927 6.5228 20.17 6.45729 20.2337C6.40114 20.2882 6.32627 20.3155 6.23269 20.3155H0.322864Z" fill="#363636"/>
<path d="M17.8901 20.3155C17.8153 20.3155 17.7451 20.2882 17.6796 20.2337C17.6234 20.1791 17.5953 20.1155 17.5953 20.0427C17.5953 19.9791 17.6141 19.92 17.6515 19.8654L20.8661 15.4596L17.8059 11.2174C17.7778 11.1719 17.7638 11.1128 17.7638 11.0401C17.7638 10.9673 17.7919 10.9037 17.848 10.8491C17.9042 10.7945 17.9697 10.7673 18.0445 10.7673H18.8868C19.0272 10.7673 19.1535 10.8446 19.2658 10.9991L21.7364 14.4092L24.193 10.9991C24.2866 10.8446 24.4082 10.7673 24.558 10.7673H25.3581C25.433 10.7673 25.4985 10.7945 25.5546 10.8491C25.6108 10.9037 25.6389 10.9673 25.6389 11.0401C25.6389 11.1219 25.6202 11.181 25.5827 11.2174L22.5646 15.4732L25.7652 19.8654C25.8026 19.92 25.8214 19.9791 25.8214 20.0427C25.8214 20.1155 25.7933 20.1791 25.7371 20.2337C25.681 20.2882 25.6108 20.3155 25.5266 20.3155H24.6703C24.5299 20.3155 24.4036 20.2382 24.2913 20.0836L21.6803 16.5508L19.0833 20.0836C18.9897 20.2382 18.8681 20.3155 18.7183 20.3155H17.8901Z" fill="#363636"/>
<path d="M36.6698 20.3155C36.5949 20.3155 36.5294 20.2882 36.4733 20.2337C36.4171 20.1791 36.389 20.1155 36.389 20.0427C36.389 19.97 36.3937 19.92 36.4031 19.8927L39.8844 11.0674C39.9593 10.8673 40.109 10.7673 40.3336 10.7673H41.2881C41.5127 10.7673 41.6625 10.8673 41.7373 11.0674L45.2046 19.8927L45.2327 20.0427C45.2327 20.1155 45.2046 20.1791 45.1485 20.2337C45.0923 20.2882 45.0268 20.3155 44.952 20.3155H44.236C44.1331 20.3155 44.0535 20.2928 43.9974 20.2473C43.9412 20.1928 43.9038 20.1382 43.8851 20.0836L43.113 18.1467H38.5087L37.7366 20.0836C37.7179 20.1382 37.6758 20.1928 37.6103 20.2473C37.5541 20.2928 37.4793 20.3155 37.3857 20.3155H36.6698ZM42.7059 16.9736L40.8109 12.1313L38.9158 16.9736H42.7059Z" fill="#363636"/>
<path d="M60.0596 20.4519C58.8055 20.4519 57.851 20.1246 57.1959 19.4698C56.5502 18.8151 56.2039 17.9103 56.1571 16.7554C56.1478 16.5099 56.1431 16.1097 56.1431 15.555C56.1431 14.9912 56.1478 14.582 56.1571 14.3274C56.2039 13.1816 56.5549 12.2813 57.2099 11.6266C57.865 10.9628 58.8149 10.6309 60.0596 10.6309C60.8925 10.6309 61.599 10.7764 62.1792 11.0674C62.7595 11.3493 63.1993 11.7221 63.4988 12.1859C63.7982 12.6496 63.962 13.1452 63.9901 13.6727V13.6999C63.9901 13.7727 63.9573 13.8363 63.8918 13.8909C63.8357 13.9364 63.7702 13.9591 63.6953 13.9591H62.9232C62.7361 13.9591 62.6191 13.8545 62.5723 13.6454C62.4132 12.9634 62.1278 12.486 61.716 12.2131C61.3042 11.9312 60.7521 11.7903 60.0596 11.7903C58.4499 11.7903 57.617 12.6587 57.5609 14.3956C57.5515 14.6411 57.5468 15.0185 57.5468 15.5278C57.5468 16.037 57.5515 16.4235 57.5609 16.6872C57.617 18.4241 58.4499 19.2925 60.0596 19.2925C60.7521 19.2925 61.3042 19.1561 61.716 18.8833C62.1371 18.6014 62.4226 18.1194 62.5723 17.4374C62.6004 17.3192 62.6425 17.2373 62.6986 17.1919C62.7548 17.1464 62.8297 17.1237 62.9232 17.1237H63.6953C63.7795 17.1237 63.8497 17.151 63.9059 17.2055C63.9714 17.251 63.9994 17.3146 63.9901 17.3965C63.962 17.933 63.7982 18.4332 63.4988 18.8969C63.1993 19.3607 62.7595 19.7381 62.1792 20.0291C61.599 20.311 60.8925 20.4519 60.0596 20.4519Z" fill="#363636"/>
<path d="M78.3086 20.3155C78.2151 20.3155 78.1355 20.2882 78.07 20.2337C78.0139 20.17 77.9858 20.0927 77.9858 20.0018V11.9813H75.2906C75.197 11.9813 75.1174 11.954 75.0519 11.8994C74.9958 11.8358 74.9677 11.7585 74.9677 11.6675V11.0946C74.9677 11.0037 74.9958 10.9264 75.0519 10.8627C75.1174 10.7991 75.197 10.7673 75.2906 10.7673H82.0567C82.1596 10.7673 82.2392 10.7991 82.2953 10.8627C82.3608 10.9173 82.3936 10.9946 82.3936 11.0946V11.6675C82.3936 11.7585 82.3608 11.8358 82.2953 11.8994C82.2298 11.954 82.1503 11.9813 82.0567 11.9813H79.3755V20.0018C79.3755 20.0927 79.3427 20.17 79.2772 20.2337C79.2117 20.2882 79.1322 20.3155 79.0386 20.3155H78.3086Z" fill="#363636"/>
<path d="M92.2323 20.3155C92.1574 20.3155 92.0919 20.2882 92.0358 20.2337C91.9796 20.1791 91.9515 20.1155 91.9515 20.0427C91.9515 19.97 91.9562 19.92 91.9656 19.8927L95.4469 11.0674C95.5217 10.8673 95.6715 10.7673 95.8961 10.7673H96.8506C97.0752 10.7673 97.225 10.8673 97.2998 11.0674L100.767 19.8927L100.795 20.0427C100.795 20.1155 100.767 20.1791 100.711 20.2337C100.655 20.2882 100.589 20.3155 100.514 20.3155H99.7985C99.6956 20.3155 99.616 20.2928 99.5599 20.2473C99.5037 20.1928 99.4663 20.1382 99.4476 20.0836L98.6755 18.1467H94.0712L93.2991 20.0836C93.2804 20.1382 93.2383 20.1928 93.1728 20.2473C93.1166 20.2928 93.0418 20.3155 92.9482 20.3155H92.2323ZM98.2684 16.9736L96.3734 12.1313L94.4783 16.9736H98.2684Z" fill="#363636"/>
<path d="M11.8887 5.46216H32.0477V25.6212H11.8887V5.46216Z" fill="#EC1E1E"/>
<path d="M27.6879 9.81568C27.5662 9.69393 27.3692 9.6924 27.2456 9.81224L26.1515 10.8729C25.4546 11.5485 24.3605 11.5307 23.4505 11.1932C22.3495 10.7849 21.1268 10.8005 20.0347 11.2411C19.2238 11.5682 18.2247 11.5326 17.6508 10.8729L16.7612 9.85054C16.6416 9.71303 16.4305 9.7057 16.3016 9.83459V9.83459C16.1848 9.95142 16.1783 10.1387 16.2867 10.2634L17.2051 11.3189C17.801 12.0038 17.7575 13.016 17.4179 13.8579C16.9619 14.9882 16.9605 16.2593 17.4149 17.3909C17.7552 18.2383 17.8016 19.2557 17.2051 19.9471L16.2849 21.0136C16.1774 21.1383 16.1842 21.3249 16.3007 21.4413V21.4413C16.4299 21.5705 16.6417 21.5627 16.761 21.4244L17.6508 20.3931C18.224 19.7286 19.2275 19.6906 20.0419 20.0175C21.1513 20.4629 22.3957 20.4708 23.5103 20.0401C24.3707 19.7076 25.4186 19.7205 26.0499 20.3931L27.0357 21.4435C27.1575 21.5732 27.3624 21.5765 27.4883 21.4506V21.4506C27.6086 21.3303 27.6116 21.1363 27.4952 21.0122L26.4956 19.9472C25.8535 19.263 25.8784 18.2089 26.2166 17.3337C26.632 16.2587 26.64 15.0621 26.2394 13.982C25.9047 13.0796 25.9063 11.9886 26.5973 11.3187L27.6844 10.2649C27.8108 10.1424 27.8124 9.94013 27.6879 9.81568V9.81568ZM25.5 17.4003C25.2507 17.9212 24.5683 17.9459 24.16 17.5375L23.6817 17.0593C23.5586 16.9361 23.359 16.9361 23.2359 17.0593V17.0593C23.1128 17.1824 23.1128 17.382 23.2359 17.5051L23.7142 17.9834C24.1225 18.3917 24.0979 19.0741 23.577 19.3233C22.46 19.8578 21.1491 19.8578 20.0321 19.3233C19.5113 19.0741 19.4866 18.3917 19.8949 17.9834L20.3732 17.5051C20.4963 17.382 20.4963 17.1824 20.3732 17.0593V17.0593C20.2501 16.9361 20.0505 16.9361 19.9274 17.0593L19.4491 17.5375C19.0408 17.9459 18.3584 17.9212 18.1092 17.4003C17.5747 16.2833 17.5747 14.9725 18.1092 13.8555C18.3584 13.3346 19.0408 13.31 19.4491 13.7183L19.9274 14.1966C20.0505 14.3197 20.2501 14.3197 20.3732 14.1966V14.1966C20.4963 14.0735 20.4963 13.8739 20.3732 13.7508L19.8949 13.2725C19.4866 12.8642 19.5113 12.1818 20.0321 11.9325C21.1491 11.398 22.46 11.398 23.577 11.9325C24.0979 12.1818 24.1225 12.8642 23.7142 13.2725L23.2359 13.7508C23.1128 13.8739 23.1128 14.0735 23.2359 14.1966V14.1966C23.359 14.3197 23.5586 14.3197 23.6817 14.1966L24.16 13.7183C24.5683 13.31 25.2507 13.3346 25.5 13.8555C26.0344 14.9725 26.0344 16.2833 25.5 17.4003Z" fill="white"/>
<path fill-rule="evenodd" clip-rule="evenodd" d="M26.0865 10.8059L27.1807 9.74525C27.3409 9.58993 27.5961 9.59191 27.7539 9.7497C27.9152 9.91099 27.9132 10.1731 27.7494 10.3319L26.6623 11.3857C26.01 12.018 25.9979 13.0624 26.3269 13.9496C26.7354 15.051 26.7273 16.271 26.3036 17.3673C25.9712 18.2276 25.9572 19.2372 26.5637 19.8833L27.5633 20.9484C27.7142 21.1091 27.7102 21.3607 27.5543 21.5166C27.3912 21.6797 27.1255 21.6755 26.9677 21.5073L25.9818 20.457C25.388 19.8243 24.3876 19.8011 23.544 20.1271C22.4073 20.5664 21.1385 20.5583 20.0071 20.1041C19.2117 19.7848 18.2579 19.8322 17.7214 20.454L16.8317 21.4853C16.6769 21.6648 16.4023 21.6749 16.2347 21.5073C16.0837 21.3563 16.0748 21.1144 16.2143 20.9527L17.1345 19.8861C17.698 19.233 17.6628 18.2583 17.3284 17.4257C16.865 16.2717 16.8664 14.9756 17.3314 13.823C17.665 12.996 17.6973 12.0268 17.1347 11.3802L16.2164 10.3246C16.0757 10.163 16.0842 9.9201 16.2357 9.76861C16.4028 9.60148 16.6765 9.61098 16.8317 9.78929L17.7212 10.8117C18.2583 11.429 19.2079 11.474 19.9998 11.1545C21.1135 10.7053 22.3603 10.6894 23.4829 11.1057C24.3786 11.4379 25.4276 11.4447 26.0865 10.8059ZM23.7477 16.9933L24.226 17.4716C24.4114 17.657 24.6575 17.7424 24.8822 17.7244C25.105 17.7065 25.3068 17.5878 25.4158 17.36C25.9381 16.2685 25.9381 14.9873 25.4158 13.8958C25.3068 13.668 25.105 13.5493 24.8822 13.5315C24.6575 13.5135 24.4114 13.5989 24.226 13.7843L23.7477 14.2626C23.5882 14.4221 23.3295 14.4221 23.1699 14.2626C23.0104 14.103 23.0104 13.8443 23.1699 13.6848L23.6482 13.2065C23.8336 13.0211 23.919 12.775 23.901 12.5503C23.8832 12.3275 23.7644 12.1257 23.5367 12.0167C22.4452 11.4944 21.164 11.4944 20.0724 12.0167C19.8447 12.1257 19.726 12.3275 19.7081 12.5503C19.6901 12.775 19.7755 13.0211 19.9609 13.2065L20.4392 13.6848C20.5988 13.8443 20.5988 14.103 20.4392 14.2626C20.2797 14.4221 20.021 14.4221 19.8614 14.2626L19.3832 13.7843C19.1977 13.5989 18.9517 13.5135 18.7269 13.5315C18.5042 13.5493 18.3023 13.668 18.1933 13.8958C17.671 14.9873 17.671 16.2685 18.1933 17.3601C18.3023 17.5878 18.5042 17.7065 18.7269 17.7244C18.9517 17.7424 19.1978 17.657 19.3832 17.4716L19.8614 16.9933C20.021 16.8337 20.2797 16.8337 20.4392 16.9933C20.5988 17.1528 20.5988 17.4115 20.4392 17.5711L19.9609 18.0493C19.7755 18.2347 19.6901 18.4808 19.7081 18.7055C19.726 18.9283 19.8447 19.1302 20.0724 19.2391C21.164 19.7614 22.4452 19.7614 23.5367 19.2391C23.7644 19.1302 23.8832 18.9283 23.901 18.7055C23.919 18.4808 23.8336 18.2347 23.6482 18.0493L23.1699 17.5711C23.0104 17.4115 23.0104 17.1528 23.1699 16.9933C23.3295 16.8337 23.5882 16.8337 23.7477 16.9933ZM27.2456 9.81224C27.3693 9.6924 27.5662 9.69393 27.6879 9.81568C27.8124 9.94013 27.8108 10.1424 27.6844 10.2649L26.5974 11.3187C25.9063 11.9886 25.9047 13.0796 26.2394 13.982C26.64 15.0621 26.632 16.2587 26.2166 17.3337C25.8784 18.2089 25.8535 19.263 26.4956 19.9472L27.4952 21.0122C27.6117 21.1363 27.6086 21.3303 27.4883 21.4506C27.3625 21.5765 27.1575 21.5732 27.0357 21.4435L26.0499 20.3931C25.4186 19.7205 24.3707 19.7076 23.5103 20.0401C22.3957 20.4708 21.1513 20.4629 20.0419 20.0175C19.2275 19.6906 18.2241 19.7286 17.6508 20.3931L16.761 21.4244C16.6417 21.5627 16.4299 21.5705 16.3007 21.4413C16.1843 21.3249 16.1774 21.1383 16.285 21.0136L17.2051 19.9471C17.8016 19.2557 17.7553 18.2383 17.415 17.3909C16.9605 16.2593 16.9619 14.9882 17.4179 13.8579C17.7576 13.016 17.801 12.0038 17.2051 11.3189L16.2868 10.2634C16.1783 10.1387 16.1848 9.95142 16.3016 9.83459C16.4305 9.7057 16.6416 9.71303 16.7613 9.85054L17.6508 10.8729C18.2248 11.5326 19.2238 11.5682 20.0347 11.2411C21.1268 10.8005 22.3495 10.7849 23.4505 11.1932C24.3605 11.5307 25.4546 11.5485 26.1515 10.8729L27.2456 9.81224ZM24.16 17.5375C24.5683 17.9459 25.2507 17.9212 25.5 17.4003C26.0345 16.2833 26.0345 14.9725 25.5 13.8555C25.2507 13.3346 24.5683 13.31 24.16 13.7183L23.6817 14.1966C23.5586 14.3197 23.359 14.3197 23.2359 14.1966C23.1128 14.0735 23.1128 13.8739 23.2359 13.7508L23.7142 13.2725C24.1225 12.8642 24.0979 12.1818 23.577 11.9325C22.46 11.398 21.1492 11.398 20.0322 11.9325C19.5113 12.1818 19.4866 12.8642 19.895 13.2725L20.3732 13.7508C20.4964 13.8739 20.4964 14.0735 20.3732 14.1966C20.2501 14.3197 20.0505 14.3197 19.9274 14.1966L19.4491 13.7183C19.0408 13.31 18.3584 13.3346 18.1092 13.8555C17.5747 14.9725 17.5747 16.2833 18.1092 17.4003C18.3584 17.9212 19.0408 17.9459 19.4491 17.5375L19.9274 17.0593C20.0505 16.9361 20.2501 16.9361 20.3732 17.0593C20.4964 17.1824 20.4964 17.382 20.3732 17.5051L19.895 17.9834C19.4866 18.3917 19.5113 19.0741 20.0322 19.3233C21.1492 19.8578 22.46 19.8578 23.577 19.3233C24.0979 19.0741 24.1225 18.3917 23.7142 17.9834L23.2359 17.5051C23.1128 17.382 23.1128 17.1824 23.2359 17.0593C23.359 16.9361 23.5586 16.9361 23.6817 17.0593L24.16 17.5375Z" fill="white"/>
<path d="M21.1928 15.5417C21.1928 15.3989 21.3085 15.2832 21.4513 15.2832V15.2832C21.594 15.2832 21.7097 15.3989 21.7097 15.5417V15.5417C21.7097 15.6844 21.594 15.8001 21.4513 15.8001V15.8001C21.3085 15.8001 21.1928 15.6844 21.1928 15.5417V15.5417Z" fill="white"/>
<path fill-rule="evenodd" clip-rule="evenodd" d="M21.4513 15.8001C21.3085 15.8001 21.1928 15.6844 21.1928 15.5417C21.1928 15.3989 21.3085 15.2832 21.4513 15.2832C21.594 15.2832 21.7097 15.3989 21.7097 15.5417C21.7097 15.6844 21.594 15.8001 21.4513 15.8001ZM21.4513 15.3422C21.3411 15.3422 21.2518 15.4315 21.2518 15.5417C21.2518 15.6518 21.3411 15.7411 21.4513 15.7411C21.5614 15.7411 21.6507 15.6518 21.6507 15.5417C21.6507 15.4315 21.5614 15.3422 21.4513 15.3422Z" fill="white"/>
<path d="M111 0L111 29" stroke="black" stroke-width="0.5"/>
<path d="M123.48 17.3604C123.767 17.3604 123.996 17.2725 124.169 17.0967C124.341 16.9176 124.436 16.6637 124.452 16.335H125.268C125.248 16.8428 125.067 17.2643 124.726 17.5996C124.387 17.9316 123.972 18.0977 123.48 18.0977C122.826 18.0977 122.326 17.8926 121.981 17.4824C121.64 17.069 121.469 16.4554 121.469 15.6416V15.0605C121.469 14.263 121.64 13.6576 121.981 13.2441C122.323 12.8275 122.821 12.6191 123.476 12.6191C124.016 12.6191 124.444 12.79 124.76 13.1318C125.079 13.4736 125.248 13.9408 125.268 14.5332H124.452C124.433 14.1426 124.338 13.8496 124.169 13.6543C124.003 13.459 123.772 13.3613 123.476 13.3613C123.091 13.3613 122.807 13.4883 122.621 13.7422C122.436 13.9928 122.34 14.4062 122.333 14.9824V15.6562C122.333 16.278 122.424 16.7174 122.606 16.9746C122.792 17.2318 123.083 17.3604 123.48 17.3604ZM127.533 15.1143C127.533 14.346 127.719 13.7389 128.09 13.293C128.464 12.8438 128.957 12.6191 129.569 12.6191C130.181 12.6191 130.673 12.8372 131.044 13.2734C131.418 13.7096 131.61 14.3037 131.62 15.0557V15.6123C131.62 16.3773 131.434 16.9827 131.063 17.4287C130.692 17.8747 130.197 18.0977 129.579 18.0977C128.967 18.0977 128.475 17.8812 128.104 17.4482C127.736 17.0153 127.546 16.4294 127.533 15.6904V15.1143ZM128.397 15.6123C128.397 16.1559 128.503 16.584 128.715 16.8965C128.929 17.2057 129.218 17.3604 129.579 17.3604C130.341 17.3604 130.733 16.8102 130.756 15.71V15.1143C130.756 14.5739 130.648 14.1475 130.433 13.835C130.219 13.5192 129.93 13.3613 129.569 13.3613C129.214 13.3613 128.929 13.5192 128.715 13.835C128.503 14.1475 128.397 14.5723 128.397 15.1094V15.6123ZM134.999 12.7168L135.023 13.2881C135.358 12.8421 135.786 12.6191 136.307 12.6191C137.241 12.6191 137.715 13.2425 137.728 14.4893V18H136.869V14.5283C136.869 14.1149 136.799 13.8219 136.659 13.6494C136.522 13.4736 136.315 13.3857 136.039 13.3857C135.824 13.3857 135.63 13.4574 135.458 13.6006C135.288 13.7438 135.152 13.931 135.047 14.1621V18H134.183V12.7168H134.999ZM143.045 16.6475C143.045 16.4619 142.975 16.3024 142.835 16.1689C142.695 16.0355 142.425 15.8792 142.025 15.7002C141.559 15.5081 141.231 15.3438 141.038 15.207C140.85 15.0703 140.708 14.9157 140.614 14.7432C140.519 14.5674 140.472 14.359 140.472 14.1182C140.472 13.6885 140.628 13.332 140.941 13.0488C141.257 12.7624 141.659 12.6191 142.147 12.6191C142.661 12.6191 143.075 12.7689 143.387 13.0684C143.7 13.3678 143.856 13.752 143.856 14.2207H142.996C142.996 13.9831 142.917 13.7812 142.757 13.6152C142.598 13.446 142.394 13.3613 142.147 13.3613C141.893 13.3613 141.693 13.4281 141.546 13.5615C141.403 13.6917 141.331 13.8675 141.331 14.0889C141.331 14.2646 141.384 14.4062 141.488 14.5137C141.595 14.6211 141.851 14.7627 142.254 14.9385C142.896 15.1891 143.332 15.4349 143.563 15.6758C143.794 15.9134 143.91 16.2161 143.91 16.584C143.91 17.043 143.752 17.4108 143.436 17.6875C143.12 17.9609 142.697 18.0977 142.166 18.0977C141.616 18.0977 141.17 17.9398 140.829 17.624C140.487 17.3083 140.316 16.9079 140.316 16.4229H141.185C141.195 16.7158 141.284 16.9453 141.454 17.1113C141.623 17.2773 141.86 17.3604 142.166 17.3604C142.453 17.3604 142.671 17.2969 142.821 17.1699C142.97 17.0397 143.045 16.8656 143.045 16.6475ZM147.62 11.4375V12.7168H148.416V13.415H147.62V16.6914C147.62 16.8997 147.654 17.0576 147.723 17.165C147.791 17.2725 147.908 17.3262 148.074 17.3262C148.188 17.3262 148.304 17.3066 148.421 17.2676L148.411 18C148.216 18.0651 148.016 18.0977 147.811 18.0977C147.469 18.0977 147.209 17.9756 147.029 17.7314C146.85 17.4873 146.761 17.1423 146.761 16.6963V13.415H145.955V12.7168H146.761V11.4375H147.62ZM153.079 13.5273C152.959 13.5046 152.828 13.4932 152.688 13.4932C152.246 13.4932 151.937 13.7357 151.761 14.2207V18H150.896V12.7168H151.736L151.751 13.2539C151.982 12.8307 152.309 12.6191 152.732 12.6191C152.869 12.6191 152.983 12.6419 153.074 12.6875L153.079 13.5273ZM158.089 17.5361C157.802 17.9105 157.384 18.0977 156.834 18.0977C156.355 18.0977 155.994 17.9333 155.75 17.6045C155.506 17.2725 155.382 16.7907 155.379 16.1592V12.7168H156.238V16.0957C156.238 16.9193 156.485 17.3311 156.98 17.3311C157.504 17.3311 157.866 17.0967 158.064 16.6279V12.7168H158.929V18H158.108L158.089 17.5361ZM162.61 18H161.746V12.7168H162.61V18ZM162.678 11.3154C162.678 11.4619 162.638 11.584 162.556 11.6816C162.475 11.7793 162.351 11.8281 162.185 11.8281C162.022 11.8281 161.9 11.7793 161.819 11.6816C161.738 11.584 161.697 11.4619 161.697 11.3154C161.697 11.1689 161.738 11.0452 161.819 10.9443C161.9 10.8434 162.022 10.793 162.185 10.793C162.348 10.793 162.47 10.8451 162.551 10.9492C162.636 11.0501 162.678 11.1722 162.678 11.3154ZM167.605 13.5273C167.484 13.5046 167.354 13.4932 167.214 13.4932C166.772 13.4932 166.462 13.7357 166.287 14.2207V18H165.422V12.7168H166.262L166.277 13.2539C166.508 12.8307 166.835 12.6191 167.258 12.6191C167.395 12.6191 167.509 12.6419 167.6 12.6875L167.605 13.5273ZM174.597 18H173.732V12.7168H174.597V18ZM174.665 11.3154C174.665 11.4619 174.624 11.584 174.543 11.6816C174.462 11.7793 174.338 11.8281 174.172 11.8281C174.009 11.8281 173.887 11.7793 173.806 11.6816C173.724 11.584 173.684 11.4619 173.684 11.3154C173.684 11.1689 173.724 11.0452 173.806 10.9443C173.887 10.8434 174.009 10.793 174.172 10.793C174.335 10.793 174.457 10.8451 174.538 10.9492C174.623 11.0501 174.665 11.1722 174.665 11.3154ZM178.224 12.7168L178.249 13.2881C178.584 12.8421 179.012 12.6191 179.533 12.6191C180.467 12.6191 180.941 13.2425 180.954 14.4893V18H180.095V14.5283C180.095 14.1149 180.025 13.8219 179.885 13.6494C179.748 13.4736 179.541 13.3857 179.264 13.3857C179.05 13.3857 178.856 13.4574 178.683 13.6006C178.514 13.7438 178.377 13.931 178.273 14.1621V18H177.409V12.7168H178.224ZM184.836 11.4375V12.7168H185.631V13.415H184.836V16.6914C184.836 16.8997 184.87 17.0576 184.938 17.165C185.006 17.2725 185.124 17.3262 185.29 17.3262C185.404 17.3262 185.519 17.3066 185.636 17.2676L185.627 18C185.431 18.0651 185.231 18.0977 185.026 18.0977C184.684 18.0977 184.424 17.9756 184.245 17.7314C184.066 17.4873 183.976 17.1423 183.976 16.6963V13.415H183.171V12.7168H183.976V11.4375H184.836ZM190.001 18.0977C189.344 18.0977 188.839 17.9023 188.488 17.5117C188.136 17.1178 187.957 16.5417 187.951 15.7832V15.1436C187.951 14.3558 188.121 13.7389 188.463 13.293C188.808 12.8438 189.288 12.6191 189.904 12.6191C190.522 12.6191 190.984 12.8161 191.29 13.21C191.596 13.6038 191.753 14.2174 191.759 15.0508V15.6172H188.81V15.7393C188.81 16.3057 188.916 16.7174 189.127 16.9746C189.342 17.2318 189.65 17.3604 190.05 17.3604C190.304 17.3604 190.527 17.3132 190.719 17.2188C190.914 17.1211 191.097 16.9681 191.266 16.7598L191.715 17.3066C191.341 17.834 190.77 18.0977 190.001 18.0977ZM189.904 13.3613C189.546 13.3613 189.28 13.485 189.108 13.7324C188.935 13.9766 188.838 14.3574 188.815 14.875H190.895V14.7578C190.872 14.2565 190.781 13.8984 190.621 13.6836C190.465 13.4688 190.226 13.3613 189.904 13.3613ZM195.182 18H194.318V10.5H195.182V18ZM198.927 18H198.062V12.7168H198.927V18ZM198.995 11.3154C198.995 11.4619 198.954 11.584 198.873 11.6816C198.792 11.7793 198.668 11.8281 198.502 11.8281C198.339 11.8281 198.217 11.7793 198.136 11.6816C198.054 11.584 198.014 11.4619 198.014 11.3154C198.014 11.1689 198.054 11.0452 198.136 10.9443C198.217 10.8434 198.339 10.793 198.502 10.793C198.665 10.793 198.787 10.8451 198.868 10.9492C198.953 11.0501 198.995 11.1722 198.995 11.3154ZM201.568 15.1191C201.568 14.2956 201.718 13.6738 202.017 13.2539C202.317 12.8307 202.755 12.6191 203.331 12.6191C203.868 12.6191 204.276 12.8486 204.556 13.3076L204.6 12.7168H205.382V18.0488C205.382 18.7031 205.214 19.2044 204.879 19.5527C204.543 19.9043 204.076 20.0801 203.477 20.0801C203.217 20.0801 202.924 20.015 202.598 19.8848C202.276 19.7578 202.034 19.5999 201.871 19.4111L202.222 18.8154C202.581 19.167 202.976 19.3428 203.409 19.3428C204.128 19.3428 204.498 18.9505 204.517 18.166V17.4775C204.237 17.891 203.84 18.0977 203.326 18.0977C202.779 18.0977 202.353 17.8926 202.047 17.4824C201.741 17.069 201.581 16.4766 201.568 15.7051V15.1191ZM202.432 15.6123C202.432 16.2048 202.519 16.641 202.691 16.9209C202.867 17.1976 203.153 17.3359 203.551 17.3359C203.98 17.3359 204.303 17.1162 204.517 16.6768V14.0352C204.293 13.6022 203.974 13.3857 203.56 13.3857C203.163 13.3857 202.877 13.5257 202.701 13.8057C202.525 14.0824 202.436 14.5088 202.432 15.085V15.6123ZM210.01 18.0977C209.353 18.0977 208.848 17.9023 208.497 17.5117C208.145 17.1178 207.966 16.5417 207.96 15.7832V15.1436C207.96 14.3558 208.13 13.7389 208.472 13.293C208.817 12.8438 209.297 12.6191 209.913 12.6191C210.531 12.6191 210.993 12.8161 211.299 13.21C211.605 13.6038 211.762 14.2174 211.768 15.0508V15.6172H208.819V15.7393C208.819 16.3057 208.925 16.7174 209.136 16.9746C209.351 17.2318 209.659 17.3604 210.059 17.3604C210.313 17.3604 210.536 17.3132 210.728 17.2188C210.923 17.1211 211.106 16.9681 211.275 16.7598L211.724 17.3066C211.35 17.834 210.779 18.0977 210.01 18.0977ZM209.913 13.3613C209.555 13.3613 209.289 13.485 209.117 13.7324C208.944 13.9766 208.847 14.3574 208.824 14.875H210.904V14.7578C210.881 14.2565 210.79 13.8984 210.63 13.6836C210.474 13.4688 210.235 13.3613 209.913 13.3613ZM215.074 12.7168L215.098 13.2881C215.433 12.8421 215.861 12.6191 216.382 12.6191C217.316 12.6191 217.79 13.2425 217.803 14.4893V18H216.944V14.5283C216.944 14.1149 216.874 13.8219 216.734 13.6494C216.597 13.4736 216.39 13.3857 216.114 13.3857C215.899 13.3857 215.705 13.4574 215.533 13.6006C215.363 13.7438 215.227 13.931 215.122 14.1621V18H214.258V12.7168H215.074ZM221.685 11.4375V12.7168H222.481V13.415H221.685V16.6914C221.685 16.8997 221.719 17.0576 221.787 17.165C221.856 17.2725 221.973 17.3262 222.139 17.3262C222.253 17.3262 222.368 17.3066 222.486 17.2676L222.476 18C222.28 18.0651 222.08 18.0977 221.875 18.0977C221.533 18.0977 221.273 17.9756 221.094 17.7314C220.915 17.4873 220.825 17.1423 220.825 16.6963V13.415H220.02V12.7168H220.825V11.4375H221.685ZM226.851 18.0977C226.193 18.0977 225.688 17.9023 225.337 17.5117C224.985 17.1178 224.806 16.5417 224.8 15.7832V15.1436C224.8 14.3558 224.971 13.7389 225.312 13.293C225.658 12.8438 226.138 12.6191 226.753 12.6191C227.371 12.6191 227.834 12.8161 228.14 13.21C228.446 13.6038 228.602 14.2174 228.608 15.0508V15.6172H225.659V15.7393C225.659 16.3057 225.765 16.7174 225.977 16.9746C226.191 17.2318 226.499 17.3604 226.899 17.3604C227.153 17.3604 227.376 17.3132 227.568 17.2188C227.764 17.1211 227.946 16.9681 228.115 16.7598L228.564 17.3066C228.19 17.834 227.619 18.0977 226.851 18.0977ZM226.753 13.3613C226.395 13.3613 226.13 13.485 225.957 13.7324C225.785 13.9766 225.687 14.3574 225.664 14.875H227.744V14.7578C227.721 14.2565 227.63 13.8984 227.471 13.6836C227.314 13.4688 227.075 13.3613 226.753 13.3613Z" fill="black"/>
</svg>
