<svg width="1010" height="130" viewBox="0 0 1010 130" fill="none" xmlns="http://www.w3.org/2000/svg">
<path d="M1.44732 91.0695C1.02781 91.0695 0.671222 90.9472 0.377562 90.7027C0.125854 90.4173 0 90.0708 0 89.6632V49.7345C0 49.2861 0.125854 48.9396 0.377562 48.695C0.671222 48.4097 1.02781 48.267 1.44732 48.267H27.4362C27.8557 48.267 28.1913 48.4097 28.443 48.695C28.7367 48.9396 28.8835 49.2861 28.8835 49.7345V52.0581C28.8835 52.4657 28.7577 52.8122 28.506 53.0976C28.2543 53.3421 27.8977 53.4644 27.4362 53.4644H6.041V66.8555H26.0518C26.4713 66.8555 26.8069 66.9982 27.0586 67.2835C27.3523 67.5281 27.4991 67.8746 27.4991 68.323V70.5855C27.4991 70.9931 27.3523 71.3396 27.0586 71.6249C26.8069 71.8695 26.4713 71.9918 26.0518 71.9918H6.041V85.8721H27.9396C28.4011 85.8721 28.7577 85.9944 29.0094 86.239C29.2611 86.4835 29.3869 86.83 29.3869 87.2785V89.6632C29.3869 90.0708 29.2401 90.4173 28.9465 90.7027C28.6947 90.9472 28.3591 91.0695 27.9396 91.0695H1.44732Z" fill="black"/>
<path d="M80.1971 91.0695C79.8615 91.0695 79.5469 90.9472 79.2532 90.7027C79.0015 90.4581 78.8757 90.1727 78.8757 89.8466C78.8757 89.5613 78.9596 89.2963 79.1274 89.0517L93.5377 69.3014L79.8196 50.2848C79.6937 50.081 79.6308 49.816 79.6308 49.4899C79.6308 49.1638 79.7566 48.8784 80.0083 48.6339C80.26 48.3893 80.5537 48.267 80.8893 48.267H84.6649C85.2942 48.267 85.8606 48.6135 86.364 49.3065L97.4391 64.5931L108.451 49.3065C108.871 48.6135 109.416 48.267 110.087 48.267H113.674C114.01 48.267 114.304 48.3893 114.555 48.6339C114.807 48.8784 114.933 49.1638 114.933 49.4899C114.933 49.8568 114.849 50.1218 114.681 50.2848L101.152 69.3625L115.499 89.0517C115.667 89.2963 115.751 89.5613 115.751 89.8466C115.751 90.1727 115.625 90.4581 115.373 90.7027C115.122 90.9472 114.807 91.0695 114.429 91.0695H110.591C109.962 91.0695 109.395 90.723 108.892 90.0301L97.1874 74.1931L85.5459 90.0301C85.1264 90.723 84.581 91.0695 83.9098 91.0695H80.1971Z" fill="black"/>
<path d="M164.382 91.0695C164.046 91.0695 163.752 90.9472 163.501 90.7027C163.249 90.4581 163.123 90.1727 163.123 89.8466C163.123 89.5205 163.144 89.2963 163.186 89.174L178.792 49.6122C179.128 48.7154 179.799 48.267 180.806 48.267H185.085C186.092 48.267 186.763 48.7154 187.098 49.6122L202.641 89.174L202.767 89.8466C202.767 90.1727 202.641 90.4581 202.39 90.7027C202.138 90.9472 201.844 91.0695 201.509 91.0695H198.299C197.838 91.0695 197.481 90.9676 197.23 90.7638C196.978 90.5192 196.81 90.2746 196.726 90.0301L193.265 81.3472H172.625L169.164 90.0301C169.08 90.2746 168.892 90.5192 168.598 90.7638C168.346 90.9676 168.011 91.0695 167.591 91.0695H164.382ZM191.44 76.0886L182.945 54.3816L174.45 76.0886H191.44Z" fill="black"/>
<path d="M269.233 91.681C263.611 91.681 259.332 90.2135 256.395 87.2785C253.501 84.3434 251.949 80.2874 251.739 75.1103C251.697 74.0097 251.676 72.216 251.676 69.7294C251.676 67.202 251.697 65.3676 251.739 64.2262C251.949 59.0899 253.522 55.0542 256.458 52.1192C259.395 49.1434 263.653 47.6555 269.233 47.6555C272.966 47.6555 276.134 48.3077 278.735 49.6122C281.336 50.8759 283.307 52.5472 284.65 54.6262C285.992 56.7052 286.726 58.9269 286.852 61.2912V61.4135C286.852 61.7396 286.705 62.0249 286.412 62.2695C286.16 62.4734 285.866 62.5753 285.531 62.5753H282.07C281.231 62.5753 280.706 62.1065 280.496 61.1689C279.783 58.1116 278.504 55.9714 276.658 54.7485C274.812 53.4848 272.337 52.853 269.233 52.853C262.017 52.853 258.283 56.746 258.032 64.532C257.99 65.6326 257.969 67.3243 257.969 69.6071C257.969 71.8899 257.99 73.6224 258.032 74.8046C258.283 82.5906 262.017 86.4836 269.233 86.4836C272.337 86.4836 274.812 85.8721 276.658 84.6492C278.546 83.3855 279.825 81.225 280.496 78.1676C280.622 77.6377 280.811 77.2708 281.063 77.067C281.315 76.8632 281.65 76.7613 282.07 76.7613H285.531C285.908 76.7613 286.223 76.8836 286.475 77.1281C286.768 77.332 286.894 77.6173 286.852 77.9842C286.726 80.3893 285.992 82.6313 284.65 84.7103C283.307 86.7893 281.336 88.481 278.735 89.7855C276.134 91.0492 272.966 91.681 269.233 91.681Z" fill="black"/>
<path d="M351.039 91.0695C350.619 91.0695 350.263 90.9472 349.969 90.7027C349.717 90.4173 349.591 90.0708 349.591 89.6632V53.709H337.509C337.09 53.709 336.733 53.5867 336.44 53.3421C336.188 53.0568 336.062 52.7103 336.062 52.3027V49.7345C336.062 49.3269 336.188 48.9804 336.44 48.695C336.733 48.4097 337.09 48.267 337.509 48.267H367.84C368.302 48.267 368.658 48.4097 368.91 48.695C369.204 48.9396 369.351 49.2861 369.351 49.7345V52.3027C369.351 52.7103 369.204 53.0568 368.91 53.3421C368.616 53.5867 368.26 53.709 367.84 53.709H355.821V89.6632C355.821 90.0708 355.674 90.4173 355.381 90.7027C355.087 90.9472 354.73 91.0695 354.311 91.0695H351.039Z" fill="black"/>
<path d="M413.455 91.0695C413.119 91.0695 412.826 90.9472 412.574 90.7027C412.322 90.4581 412.196 90.1727 412.196 89.8466C412.196 89.5205 412.217 89.2963 412.259 89.174L427.865 49.6122C428.201 48.7154 428.872 48.267 429.879 48.267H434.158C435.165 48.267 435.836 48.7154 436.172 49.6122L451.715 89.174L451.841 89.8466C451.841 90.1727 451.715 90.4581 451.463 90.7027C451.211 90.9472 450.918 91.0695 450.582 91.0695H447.373C446.911 91.0695 446.555 90.9676 446.303 90.7638C446.051 90.5192 445.883 90.2746 445.8 90.0301L442.339 81.3472H421.698L418.237 90.0301C418.154 90.2746 417.965 90.5192 417.671 90.7638C417.419 90.9676 417.084 91.0695 416.664 91.0695H413.455ZM440.514 76.0886L432.018 54.3816L423.523 76.0886H440.514Z" fill="black"/>
<path d="M53.294 24.4856H143.662V114.854H53.294V24.4856Z" fill="#EC1E1E"/>
<path d="M124.118 44.0013C123.572 43.4555 122.69 43.4487 122.136 43.9859L117.231 48.7407C114.107 51.769 109.202 51.6893 105.123 50.1764C100.188 48.3461 94.7064 48.416 89.8107 50.391C86.1755 51.8575 81.6971 51.6978 79.1241 48.7406L75.1366 44.1576C74.6003 43.5411 73.654 43.5083 73.0762 44.0861V44.0861C72.5525 44.6098 72.5233 45.4495 73.0095 46.0083L77.1263 50.7399C79.7975 53.81 79.6028 58.3475 78.0802 62.1215C76.0361 67.1884 76.03 72.8865 78.067 77.9592C79.5924 81.7578 79.8003 86.3185 77.1264 89.4179L73.0014 94.1991C72.5192 94.758 72.55 95.5943 73.072 96.1163V96.1163C73.6512 96.6955 74.6005 96.6606 75.1356 96.0403L79.1241 91.4173C81.694 88.4386 86.1921 88.2681 89.8429 89.7338C94.8162 91.7304 100.394 91.7657 105.391 89.8348C109.248 88.3443 113.945 88.4024 116.775 91.4174L121.195 96.1259C121.74 96.7075 122.659 96.722 123.223 96.158V96.158C123.763 95.6187 123.776 94.7487 123.254 94.1926L118.773 89.4185C115.895 86.3515 116.006 81.6263 117.523 77.7028C119.385 72.8836 119.421 67.5198 117.625 62.6779C116.125 58.6327 116.132 53.742 119.229 50.739L124.103 46.015C124.669 45.4658 124.676 44.5592 124.118 44.0013V44.0013ZM114.31 78.0014C113.193 80.3364 110.134 80.4469 108.303 78.6165L106.159 76.4725C105.608 75.9206 104.713 75.9206 104.161 76.4725V76.4725C103.609 77.0244 103.609 77.9191 104.161 78.471L106.305 80.615C108.135 82.4454 108.025 85.5044 105.69 86.6217C100.683 89.0177 94.8065 89.0177 89.7993 86.6217C87.4643 85.5044 87.3538 82.4454 89.1842 80.615L91.3283 78.471C91.8801 77.9191 91.8801 77.0244 91.3283 76.4725V76.4725C90.7764 75.9206 89.8816 75.9206 89.3297 76.4725L87.1857 78.6165C85.3553 80.4469 82.2963 80.3364 81.179 78.0014C78.783 72.9942 78.783 67.118 81.179 62.1108C82.2963 59.7758 85.3553 59.6654 87.1857 61.4958L89.3297 63.6398C89.8816 64.1917 90.7764 64.1917 91.3283 63.6398V63.6398C91.8801 63.0879 91.8801 62.1932 91.3283 61.6413L89.1842 59.4972C87.3538 57.6669 87.4643 54.6078 89.7993 53.4905C94.8065 51.0946 100.683 51.0946 105.69 53.4905C108.025 54.6078 108.135 57.6669 106.305 59.4972L104.161 61.6413C103.609 62.1932 103.609 63.0879 104.161 63.6398V63.6398C104.713 64.1917 105.608 64.1917 106.159 63.6398L108.303 61.4958C110.134 59.6654 113.193 59.7758 114.31 62.1108C116.706 67.118 116.706 72.9942 114.31 78.0014Z" fill="white"/>
<path fill-rule="evenodd" clip-rule="evenodd" d="M116.94 48.4403L121.844 43.6856C122.563 42.9893 123.707 42.9982 124.414 43.7055C125.137 44.4286 125.128 45.6036 124.394 46.3153L119.521 51.0393C116.597 53.8738 116.542 58.5557 118.017 62.5325C119.848 67.47 119.812 72.9391 117.913 77.8536C116.423 81.7101 116.36 86.2358 119.078 89.1322L123.559 93.9064C124.236 94.6271 124.218 95.7548 123.519 96.4538C122.788 97.1848 121.597 97.166 120.89 96.4122L116.47 91.7036C113.808 88.8673 109.324 88.7635 105.542 90.225C100.446 92.1941 94.7587 92.158 89.6871 90.1219C86.1216 88.6905 81.8458 88.9029 79.4409 91.6905L75.4524 96.3136C74.7585 97.1179 73.5274 97.1632 72.7763 96.412C72.0994 95.7352 72.0595 94.6507 72.6848 93.9259L76.8097 89.1446C79.3357 86.2167 79.1779 81.8477 77.6789 78.115C75.6016 72.942 75.6079 67.132 77.6924 61.965C79.1878 58.2581 79.3329 53.9132 76.8108 51.0145L72.694 46.2828C72.0636 45.5583 72.1014 44.4694 72.7805 43.7903C73.5297 43.0411 74.7568 43.0837 75.4522 43.883L79.4398 48.466C81.8476 51.2334 86.1043 51.4352 89.6543 50.0031C94.6468 47.989 100.236 47.9178 105.268 49.7842C109.283 51.2732 113.986 51.3039 116.94 48.4403ZM106.455 76.1767L108.599 78.3207C109.43 79.1519 110.533 79.5347 111.541 79.454C112.54 79.3741 113.444 78.8418 113.933 77.8209C116.274 72.9279 116.274 67.1844 113.933 62.2914C113.444 61.2705 112.54 60.7382 111.541 60.6582C110.533 60.5776 109.43 60.9604 108.599 61.7915L106.455 63.9356C105.74 64.6508 104.58 64.6508 103.865 63.9356C103.15 63.2204 103.15 62.0607 103.865 61.3455L106.009 59.2015C106.84 58.3704 107.223 57.2673 107.143 56.2599C107.063 55.2613 106.53 54.3563 105.509 53.8679C100.616 51.5265 94.8729 51.5265 89.9799 53.8679C88.959 54.3563 88.4267 55.2613 88.3467 56.2599C88.2661 57.2673 88.6489 58.3704 89.4801 59.2015L91.6241 61.3455C92.3393 62.0607 92.3393 63.2204 91.6241 63.9356C90.9089 64.6508 89.7492 64.6508 89.034 63.9356L86.89 61.7915C86.0589 60.9604 84.9558 60.5776 83.9484 60.6582C82.9498 60.7382 82.0449 61.2705 81.5564 62.2914C79.215 67.1844 79.215 72.9279 81.5564 77.8209C82.0449 78.8418 82.9498 79.3741 83.9484 79.454C84.9558 79.5347 86.0589 79.1519 86.89 78.3207L89.034 76.1767C89.7492 75.4615 90.9089 75.4615 91.6241 76.1767C92.3393 76.8919 92.3393 78.0515 91.6241 78.7668L89.4801 80.9108C88.6489 81.7419 88.2661 82.845 88.3468 83.8524C88.4267 84.851 88.959 85.7559 89.9799 86.2444C94.8729 88.5858 100.616 88.5858 105.509 86.2444C106.53 85.7559 107.063 84.851 107.143 83.8524C107.223 82.845 106.84 81.7419 106.009 80.9108L103.865 78.7668C103.15 78.0515 103.15 76.8919 103.865 76.1767C104.58 75.4615 105.74 75.4615 106.455 76.1767ZM122.136 43.9859C122.69 43.4487 123.573 43.4555 124.118 44.0013C124.676 44.5592 124.669 45.4658 124.103 46.015L119.23 50.739C116.132 53.742 116.125 58.6327 117.625 62.6779C119.421 67.5198 119.385 72.8836 117.523 77.7028C116.007 81.6263 115.895 86.3515 118.773 89.4185L123.254 94.1926C123.776 94.7487 123.763 95.6187 123.223 96.158C122.659 96.722 121.741 96.7075 121.195 96.1259L116.775 91.4174C113.946 88.4024 109.248 88.3443 105.391 89.8348C100.394 91.7657 94.8163 91.7304 89.843 89.7338C86.1922 88.2681 81.694 88.4386 79.1242 91.4173L75.1357 96.0403C74.6006 96.6606 73.6513 96.6955 73.072 96.1163C72.5501 95.5943 72.5193 94.758 73.0015 94.1991L77.1264 89.4179C79.8004 86.3185 79.5925 81.7578 78.0671 77.9592C76.03 72.8865 76.0362 67.1884 78.0803 62.1215C79.6028 58.3475 79.7976 53.81 77.1264 50.7399L73.0096 46.0083C72.5234 45.4495 72.5525 44.6098 73.0763 44.0861C73.654 43.5083 74.6004 43.5411 75.1367 44.1576L79.1242 48.7406C81.6972 51.6978 86.1755 51.8575 89.8108 50.391C94.7065 48.416 100.188 48.3461 105.123 50.1764C109.202 51.6893 114.107 51.769 117.231 48.7407L122.136 43.9859ZM108.304 78.6165C110.134 80.4469 113.193 80.3364 114.31 78.0014C116.706 72.9942 116.706 67.118 114.31 62.1108C113.193 59.7758 110.134 59.6654 108.304 61.4958L106.16 63.6398C105.608 64.1917 104.713 64.1917 104.161 63.6398C103.609 63.0879 103.609 62.1932 104.161 61.6413L106.305 59.4972C108.135 57.6669 108.025 54.6078 105.69 53.4905C100.683 51.0946 94.8066 51.0946 89.7994 53.4905C87.4643 54.6078 87.3539 57.6669 89.1843 59.4972L91.3283 61.6413C91.8802 62.1932 91.8802 63.0879 91.3283 63.6398C90.7764 64.1917 89.8817 64.1917 89.3298 63.6398L87.1858 61.4958C85.3554 59.6654 82.2964 59.7758 81.179 62.1108C78.7831 67.118 78.7831 72.9942 81.1791 78.0014C82.2964 80.3364 85.3554 80.4469 87.1858 78.6165L89.3298 76.4725C89.8817 75.9206 90.7764 75.9206 91.3283 76.4725C91.8802 77.0244 91.8802 77.9191 91.3283 78.471L89.1843 80.615C87.3539 82.4454 87.4644 85.5044 89.7994 86.6217C94.8066 89.0177 100.683 89.0177 105.69 86.6217C108.025 85.5044 108.135 82.4454 106.305 80.615L104.161 78.471C103.609 77.9191 103.609 77.0244 104.161 76.4725C104.713 75.9206 105.608 75.9206 106.16 76.4725L108.304 78.6165Z" fill="white"/>
<path d="M95.0023 69.6696C95.0023 69.0297 95.521 68.511 96.1608 68.511V68.511C96.8007 68.511 97.3194 69.0297 97.3194 69.6696V69.6696C97.3194 70.3094 96.8007 70.8281 96.1608 70.8281V70.8281C95.521 70.8281 95.0023 70.3094 95.0023 69.6696V69.6696Z" fill="white"/>
<path fill-rule="evenodd" clip-rule="evenodd" d="M96.1608 70.8281C95.521 70.8281 95.0023 70.3094 95.0023 69.6696C95.0023 69.0297 95.521 68.511 96.1608 68.511C96.8007 68.511 97.3194 69.0297 97.3194 69.6696C97.3194 70.3094 96.8007 70.8281 96.1608 70.8281ZM96.1608 68.7756C95.6671 68.7756 95.2669 69.1758 95.2669 69.6696C95.2669 70.1633 95.6671 70.5635 96.1608 70.5635C96.6545 70.5635 97.0548 70.1633 97.0548 69.6696C97.0548 69.1758 96.6545 68.7756 96.1608 68.7756Z" fill="white"/>
<path d="M497.586 0L497.586 130" stroke="black" stroke-width="3"/>
<path d="M537.984 80.0636C539.268 80.0636 540.296 79.6696 541.07 78.8816C541.843 78.079 542.266 76.9408 542.339 75.467H545.995C545.907 77.7434 545.097 79.6331 543.565 81.1361C542.047 82.6246 540.187 83.3688 537.984 83.3688C535.05 83.3688 532.811 82.4494 531.264 80.6108C529.732 78.7576 528.965 76.0069 528.965 72.3589V69.7541C528.965 66.179 529.732 63.4648 531.264 61.6116C532.796 59.7438 535.029 58.8099 537.962 58.8099C540.384 58.8099 542.303 59.576 543.718 61.1082C545.148 62.6404 545.907 64.7344 545.995 67.3902H542.339C542.252 65.6391 541.829 64.3258 541.07 63.4503C540.326 62.5747 539.29 62.1369 537.962 62.1369C536.24 62.1369 534.963 62.706 534.131 63.8442C533.299 64.9679 532.869 66.8211 532.84 69.4039V72.4245C532.84 75.2117 533.248 77.1816 534.065 78.3344C534.897 79.4872 536.203 80.0636 537.984 80.0636Z" fill="black"/>
<path d="M556.15 69.9949C556.15 66.5511 556.982 63.8297 558.645 61.8305C560.323 59.8168 562.534 58.8099 565.278 58.8099C568.021 58.8099 570.224 59.7876 571.888 61.743C573.566 63.6983 574.427 66.3614 574.471 69.7322V72.2275C574.471 75.6567 573.639 78.3709 571.975 80.37C570.312 82.3692 568.094 83.3688 565.321 83.3688C562.578 83.3688 560.375 82.3984 558.711 80.4576C557.062 78.5168 556.208 75.8902 556.15 72.5777V69.9949ZM560.024 72.2275C560.024 74.6644 560.499 76.5833 561.447 77.9842C562.41 79.3705 563.702 80.0636 565.321 80.0636C568.736 80.0636 570.494 77.5975 570.596 72.6653V69.9949C570.596 67.5726 570.115 65.661 569.152 64.2601C568.189 62.8447 566.897 62.1369 565.278 62.1369C563.687 62.1369 562.41 62.8447 561.447 64.2601C560.499 65.661 560.024 67.5653 560.024 69.973V72.2275Z" fill="black"/>
<path d="M589.617 59.2477L589.726 61.8086C591.229 59.8095 593.148 58.8099 595.483 58.8099C599.671 58.8099 601.794 61.6043 601.852 67.1932V82.931H598V67.3683C598 65.5151 597.686 64.2018 597.059 63.4284C596.446 62.6404 595.519 62.2464 594.279 62.2464C593.316 62.2464 592.448 62.5674 591.674 63.2095C590.915 63.8515 590.302 64.6906 589.836 65.7267V82.931H585.961V59.2477H589.617Z" fill="black"/>
<path d="M625.688 76.8679C625.688 76.0361 625.374 75.3211 624.747 74.7228C624.119 74.1245 622.908 73.4241 621.113 72.6215C619.027 71.7606 617.553 71.0237 616.692 70.4108C615.845 69.7979 615.211 69.1048 614.788 68.3314C614.364 67.5434 614.153 66.6095 614.153 65.5297C614.153 63.6035 614.853 62.0056 616.254 60.7361C617.669 59.452 619.472 58.8099 621.66 58.8099C623.966 58.8099 625.819 59.4811 627.22 60.8236C628.621 62.1661 629.321 63.888 629.321 65.9893H625.469C625.469 64.9241 625.112 64.0194 624.397 63.2751C623.682 62.5163 622.77 62.1369 621.66 62.1369C620.522 62.1369 619.625 62.4361 618.968 63.0344C618.326 63.6181 618.005 64.4061 618.005 65.3983C618.005 66.1863 618.239 66.8211 618.706 67.3026C619.187 67.7842 620.333 68.4189 622.142 69.2069C625.017 70.3305 626.972 71.4322 628.008 72.5121C629.044 73.5773 629.562 74.9344 629.562 76.5833C629.562 78.6409 628.855 80.2898 627.439 81.5301C626.024 82.7559 624.127 83.3688 621.748 83.3688C619.282 83.3688 617.283 82.661 615.751 81.2456C614.218 79.8301 613.452 78.0353 613.452 75.861H617.348C617.392 77.1743 617.794 78.2031 618.552 78.9473C619.311 79.6915 620.376 80.0636 621.748 80.0636C623.032 80.0636 624.01 79.7791 624.681 79.21C625.352 78.6263 625.688 77.8456 625.688 76.8679Z" fill="black"/>
<path d="M646.197 53.5129V59.2477H649.764V62.3777H646.197V77.0649C646.197 77.9988 646.35 78.7065 646.656 79.1881C646.963 79.6696 647.488 79.9104 648.232 79.9104C648.743 79.9104 649.261 79.8228 649.786 79.6477L649.743 82.931C648.867 83.2228 647.97 83.3688 647.05 83.3688C645.518 83.3688 644.351 82.8215 643.548 81.7271C642.746 80.6327 642.344 79.0859 642.344 77.0868V62.3777H638.733V59.2477H642.344V53.5129H646.197Z" fill="black"/>
<path d="M670.667 62.8812C670.127 62.779 669.543 62.7279 668.916 62.7279C666.931 62.7279 665.545 63.8151 664.757 65.9893V82.931H660.883V59.2477H664.648L664.713 61.6554C665.749 59.7584 667.216 58.8099 669.113 58.8099C669.726 58.8099 670.237 58.912 670.645 59.1163L670.667 62.8812Z" fill="black"/>
<path d="M693.124 80.8516C691.84 82.5297 689.964 83.3688 687.498 83.3688C685.353 83.3688 683.734 82.6318 682.639 81.158C681.545 79.6696 680.99 77.5099 680.976 74.679V59.2477H684.828V74.3945C684.828 78.0863 685.937 79.9323 688.155 79.9323C690.504 79.9323 692.124 78.8816 693.014 76.7803V59.2477H696.889V82.931H693.211L693.124 80.8516Z" fill="black"/>
<path d="M713.392 82.931H709.517V59.2477H713.392V82.931ZM713.698 52.9657C713.698 53.6223 713.516 54.1695 713.151 54.6073C712.786 55.0451 712.231 55.264 711.487 55.264C710.758 55.264 710.21 55.0451 709.846 54.6073C709.481 54.1695 709.298 53.6223 709.298 52.9657C709.298 52.309 709.481 51.7545 709.846 51.3022C710.21 50.8498 710.758 50.6236 711.487 50.6236C712.217 50.6236 712.764 50.8571 713.129 51.324C713.508 51.7764 713.698 52.3236 713.698 52.9657Z" fill="black"/>
<path d="M735.783 62.8812C735.243 62.779 734.659 62.7279 734.032 62.7279C732.047 62.7279 730.661 63.8151 729.873 65.9893V82.931H725.998V59.2477H729.763L729.829 61.6554C730.865 59.7584 732.332 58.8099 734.229 58.8099C734.841 58.8099 735.352 58.912 735.761 59.1163L735.783 62.8812Z" fill="black"/>
<path d="M767.125 82.931H763.251V59.2477H767.125V82.931ZM767.432 52.9657C767.432 53.6223 767.249 54.1695 766.884 54.6073C766.52 55.0451 765.965 55.264 765.221 55.264C764.491 55.264 763.944 55.0451 763.579 54.6073C763.214 54.1695 763.032 53.6223 763.032 52.9657C763.032 52.309 763.214 51.7545 763.579 51.3022C763.944 50.8498 764.491 50.6236 765.221 50.6236C765.95 50.6236 766.498 50.8571 766.862 51.324C767.242 51.7764 767.432 52.3236 767.432 52.9657Z" fill="black"/>
<path d="M783.387 59.2477L783.497 61.8086C785 59.8095 786.919 58.8099 789.254 58.8099C793.441 58.8099 795.565 61.6043 795.623 67.1932V82.931H791.771V67.3683C791.771 65.5151 791.457 64.2018 790.829 63.4284C790.217 62.6404 789.29 62.2464 788.05 62.2464C787.087 62.2464 786.218 62.5674 785.445 63.2095C784.686 63.8515 784.073 64.6906 783.606 65.7267V82.931H779.732V59.2477H783.387Z" fill="black"/>
<path d="M813.024 53.5129V59.2477H816.591V62.3777H813.024V77.0649C813.024 77.9988 813.177 78.7065 813.483 79.1881C813.79 79.6696 814.315 79.9104 815.059 79.9104C815.57 79.9104 816.088 79.8228 816.613 79.6477L816.569 82.931C815.694 83.2228 814.796 83.3688 813.877 83.3688C812.345 83.3688 811.178 82.8215 810.375 81.7271C809.572 80.6327 809.171 79.0859 809.171 77.0868V62.3777H805.56V59.2477H809.171V53.5129H813.024Z" fill="black"/>
<path d="M836.181 83.3688C833.233 83.3688 830.971 82.4932 829.395 80.7421C827.819 78.9765 827.017 76.3936 826.987 72.9936V70.1262C826.987 66.5949 827.754 63.8297 829.286 61.8305C830.833 59.8168 832.985 58.8099 835.743 58.8099C838.515 58.8099 840.587 59.6927 841.959 61.4584C843.331 63.2241 844.031 65.9747 844.06 69.7104V72.2494H830.84V72.7966C830.84 75.3357 831.314 77.1816 832.263 78.3344C833.226 79.4872 834.605 80.0636 836.4 80.0636C837.538 80.0636 838.537 79.852 839.398 79.4288C840.274 78.9911 841.091 78.3052 841.85 77.3713L843.863 79.8228C842.185 82.1868 839.624 83.3688 836.181 83.3688ZM835.743 62.1369C834.138 62.1369 832.948 62.6915 832.175 63.8005C831.402 64.8949 830.964 66.6022 830.862 68.9224H840.186V68.397C840.084 66.1498 839.675 64.5447 838.96 63.5816C838.26 62.6185 837.187 62.1369 835.743 62.1369Z" fill="black"/>
<path d="M859.403 82.931H855.529V49.3103H859.403V82.931Z" fill="black"/>
<path d="M876.191 82.931H872.317V59.2477H876.191V82.931ZM876.497 52.9657C876.497 53.6223 876.315 54.1695 875.95 54.6073C875.585 55.0451 875.031 55.264 874.287 55.264C873.557 55.264 873.01 55.0451 872.645 54.6073C872.28 54.1695 872.098 53.6223 872.098 52.9657C872.098 52.309 872.28 51.7545 872.645 51.3022C873.01 50.8498 873.557 50.6236 874.287 50.6236C875.016 50.6236 875.564 50.8571 875.928 51.324C876.308 51.7764 876.497 52.3236 876.497 52.9657Z" fill="black"/>
<path d="M888.032 70.0168C888.032 66.3249 888.703 63.5378 890.046 61.6554C891.388 59.7584 893.351 58.8099 895.934 58.8099C898.341 58.8099 900.173 59.8387 901.428 61.8962L901.625 59.2477H905.127V83.1499C905.127 86.0829 904.375 88.3301 902.872 89.8915C901.369 91.4675 899.275 92.2555 896.59 92.2555C895.423 92.2555 894.109 91.9636 892.65 91.3799C891.206 90.8108 890.118 90.1031 889.389 89.2568L890.965 86.5864C892.57 88.1623 894.343 88.9503 896.284 88.9503C899.509 88.9503 901.165 87.1919 901.252 83.6752V80.5889C899.997 82.4421 898.217 83.3688 895.912 83.3688C893.46 83.3688 891.549 82.4494 890.177 80.6108C888.805 78.7576 888.09 76.1018 888.032 72.6434V70.0168ZM891.906 72.2275C891.906 74.8833 892.293 76.8387 893.066 78.0936C893.854 79.334 895.138 79.9542 896.918 79.9542C898.845 79.9542 900.289 78.9692 901.252 76.9992V65.1576C900.246 63.2168 898.815 62.2464 896.962 62.2464C895.182 62.2464 893.898 62.8739 893.11 64.1288C892.322 65.3691 891.921 67.2807 891.906 69.8636V72.2275Z" fill="black"/>
<path d="M925.876 83.3688C922.928 83.3688 920.667 82.4932 919.091 80.7421C917.515 78.9765 916.712 76.3936 916.683 72.9936V70.1262C916.683 66.5949 917.449 63.8297 918.981 61.8305C920.528 59.8168 922.68 58.8099 925.438 58.8099C928.211 58.8099 930.283 59.6927 931.655 61.4584C933.026 63.2241 933.727 65.9747 933.756 69.7104V72.2494H920.535V72.7966C920.535 75.3357 921.01 77.1816 921.958 78.3344C922.921 79.4872 924.3 80.0636 926.095 80.0636C927.233 80.0636 928.233 79.852 929.094 79.4288C929.969 78.9911 930.786 78.3052 931.545 77.3713L933.559 79.8228C931.881 82.1868 929.32 83.3688 925.876 83.3688ZM925.438 62.1369C923.833 62.1369 922.644 62.6915 921.87 63.8005C921.097 64.8949 920.659 66.6022 920.557 68.9224H929.882V68.397C929.78 66.1498 929.371 64.5447 928.656 63.5816C927.955 62.6185 926.883 62.1369 925.438 62.1369Z" fill="black"/>
<path d="M948.574 59.2477L948.683 61.8086C950.186 59.8095 952.105 58.8099 954.44 58.8099C958.628 58.8099 960.751 61.6043 960.809 67.1932V82.931H956.957V67.3683C956.957 65.5151 956.643 64.2018 956.016 63.4284C955.403 62.6404 954.476 62.2464 953.236 62.2464C952.273 62.2464 951.404 62.5674 950.631 63.2095C949.872 63.8515 949.259 64.6906 948.792 65.7267V82.931H944.918V59.2477H948.574Z" fill="black"/>
<path d="M978.21 53.5129V59.2477H981.777V62.3777H978.21V77.0649C978.21 77.9988 978.363 78.7065 978.669 79.1881C978.976 79.6696 979.501 79.9104 980.245 79.9104C980.756 79.9104 981.274 79.8228 981.799 79.6477L981.756 82.931C980.88 83.2228 979.983 83.3688 979.063 83.3688C977.531 83.3688 976.364 82.8215 975.561 81.7271C974.759 80.6327 974.357 79.0859 974.357 77.0868V62.3777H970.746V59.2477H974.357V53.5129H978.21Z" fill="black"/>
<path d="M1001.37 83.3688C998.419 83.3688 996.157 82.4932 994.581 80.7421C993.005 78.9765 992.203 76.3936 992.174 72.9936V70.1262C992.174 66.5949 992.94 63.8297 994.472 61.8305C996.019 59.8168 998.171 58.8099 1000.93 58.8099C1003.7 58.8099 1005.77 59.6927 1007.15 61.4584C1008.52 63.2241 1009.22 65.9747 1009.25 69.7104V72.2494H996.026V72.7966C996.026 75.3357 996.5 77.1816 997.449 78.3344C998.412 79.4872 999.791 80.0636 1001.59 80.0636C1002.72 80.0636 1003.72 79.852 1004.58 79.4288C1005.46 78.9911 1006.28 78.3052 1007.04 77.3713L1009.05 79.8228C1007.37 82.1868 1004.81 83.3688 1001.37 83.3688ZM1000.93 62.1369C999.324 62.1369 998.135 62.6915 997.361 63.8005C996.588 64.8949 996.15 66.6022 996.048 68.9224H1005.37V68.397C1005.27 66.1498 1004.86 64.5447 1004.15 63.5816C1003.45 62.6185 1002.37 62.1369 1000.93 62.1369Z" fill="black"/>
<path d="M556.15 69.9949C556.15 66.5511 556.982 63.8297 558.645 61.8305C560.323 59.8168 562.534 58.8099 565.278 58.8099C568.021 58.8099 570.224 59.7876 571.888 61.743C573.566 63.6983 574.427 66.3614 574.471 69.7322V72.2275C574.471 75.6567 573.639 78.3709 571.975 80.37C570.312 82.3692 568.094 83.3688 565.321 83.3688C562.578 83.3688 560.375 82.3984 558.711 80.4576C557.062 78.5168 556.208 75.8902 556.15 72.5777V69.9949ZM560.024 72.2275C560.024 74.6644 560.499 76.5833 561.447 77.9842C562.41 79.3705 563.702 80.0636 565.321 80.0636C568.736 80.0636 570.494 77.5975 570.596 72.6653V69.9949C570.596 67.5726 570.115 65.661 569.152 64.2601C568.189 62.8447 566.897 62.1369 565.278 62.1369C563.687 62.1369 562.41 62.8447 561.447 64.2601C560.499 65.661 560.024 67.5653 560.024 69.973V72.2275Z" fill="black"/>
<path d="M589.617 59.2477L589.726 61.8086C591.229 59.8095 593.148 58.8099 595.483 58.8099C599.671 58.8099 601.794 61.6043 601.852 67.1932V82.931H598V67.3683C598 65.5151 597.686 64.2018 597.059 63.4284C596.446 62.6404 595.519 62.2464 594.279 62.2464C593.316 62.2464 592.448 62.5674 591.674 63.2095C590.915 63.8515 590.302 64.6906 589.836 65.7267V82.931H585.961V59.2477H589.617Z" fill="black"/>
<path d="M625.688 76.8679C625.688 76.0361 625.374 75.3211 624.747 74.7228C624.119 74.1245 622.908 73.4241 621.113 72.6215C619.027 71.7606 617.553 71.0237 616.692 70.4108C615.845 69.7979 615.211 69.1048 614.788 68.3314C614.364 67.5434 614.153 66.6095 614.153 65.5297C614.153 63.6035 614.853 62.0056 616.254 60.7361C617.669 59.452 619.472 58.8099 621.66 58.8099C623.966 58.8099 625.819 59.4811 627.22 60.8236C628.621 62.1661 629.321 63.888 629.321 65.9893H625.469C625.469 64.9241 625.112 64.0194 624.397 63.2751C623.682 62.5163 622.77 62.1369 621.66 62.1369C620.522 62.1369 619.625 62.4361 618.968 63.0344C618.326 63.6181 618.005 64.4061 618.005 65.3983C618.005 66.1863 618.239 66.8211 618.706 67.3026C619.187 67.7842 620.333 68.4189 622.142 69.2069C625.017 70.3305 626.972 71.4322 628.008 72.5121C629.044 73.5773 629.562 74.9344 629.562 76.5833C629.562 78.6409 628.855 80.2898 627.439 81.5301C626.024 82.7559 624.127 83.3688 621.748 83.3688C619.282 83.3688 617.283 82.661 615.751 81.2456C614.218 79.8301 613.452 78.0353 613.452 75.861H617.348C617.392 77.1743 617.794 78.2031 618.552 78.9473C619.311 79.6915 620.376 80.0636 621.748 80.0636C623.032 80.0636 624.01 79.7791 624.681 79.21C625.352 78.6263 625.688 77.8456 625.688 76.8679Z" fill="black"/>
<path d="M646.197 53.5129V59.2477H649.764V62.3777H646.197V77.0649C646.197 77.9988 646.35 78.7065 646.656 79.1881C646.963 79.6696 647.488 79.9104 648.232 79.9104C648.743 79.9104 649.261 79.8228 649.786 79.6477L649.743 82.931C648.867 83.2228 647.97 83.3688 647.05 83.3688C645.518 83.3688 644.351 82.8215 643.548 81.7271C642.746 80.6327 642.344 79.0859 642.344 77.0868V62.3777H638.733V59.2477H642.344V53.5129H646.197Z" fill="black"/>
<path d="M670.667 62.8812C670.127 62.779 669.543 62.7279 668.916 62.7279C666.931 62.7279 665.545 63.8151 664.757 65.9893V82.931H660.883V59.2477H664.648L664.713 61.6554C665.749 59.7584 667.216 58.8099 669.113 58.8099C669.726 58.8099 670.237 58.912 670.645 59.1163L670.667 62.8812Z" fill="black"/>
<path d="M693.124 80.8516C691.84 82.5297 689.964 83.3688 687.498 83.3688C685.353 83.3688 683.734 82.6318 682.639 81.158C681.545 79.6696 680.99 77.5099 680.976 74.679V59.2477H684.828V74.3945C684.828 78.0863 685.937 79.9323 688.155 79.9323C690.504 79.9323 692.124 78.8816 693.014 76.7803V59.2477H696.889V82.931H693.211L693.124 80.8516Z" fill="black"/>
<path d="M713.392 82.931H709.517V59.2477H713.392V82.931ZM713.698 52.9657C713.698 53.6223 713.516 54.1695 713.151 54.6073C712.786 55.0451 712.231 55.264 711.487 55.264C710.758 55.264 710.21 55.0451 709.846 54.6073C709.481 54.1695 709.298 53.6223 709.298 52.9657C709.298 52.309 709.481 51.7545 709.846 51.3022C710.21 50.8498 710.758 50.6236 711.487 50.6236C712.217 50.6236 712.764 50.8571 713.129 51.324C713.508 51.7764 713.698 52.3236 713.698 52.9657Z" fill="black"/>
<path d="M735.783 62.8812C735.243 62.779 734.659 62.7279 734.032 62.7279C732.047 62.7279 730.661 63.8151 729.873 65.9893V82.931H725.998V59.2477H729.763L729.829 61.6554C730.865 59.7584 732.332 58.8099 734.229 58.8099C734.841 58.8099 735.352 58.912 735.761 59.1163L735.783 62.8812Z" fill="black"/>
<path d="M767.125 82.931H763.251V59.2477H767.125V82.931ZM767.432 52.9657C767.432 53.6223 767.249 54.1695 766.884 54.6073C766.52 55.0451 765.965 55.264 765.221 55.264C764.491 55.264 763.944 55.0451 763.579 54.6073C763.214 54.1695 763.032 53.6223 763.032 52.9657C763.032 52.309 763.214 51.7545 763.579 51.3022C763.944 50.8498 764.491 50.6236 765.221 50.6236C765.95 50.6236 766.498 50.8571 766.862 51.324C767.242 51.7764 767.432 52.3236 767.432 52.9657Z" fill="black"/>
<path d="M783.387 59.2477L783.497 61.8086C785 59.8095 786.919 58.8099 789.254 58.8099C793.441 58.8099 795.565 61.6043 795.623 67.1932V82.931H791.771V67.3683C791.771 65.5151 791.457 64.2018 790.829 63.4284C790.217 62.6404 789.29 62.2464 788.05 62.2464C787.087 62.2464 786.218 62.5674 785.445 63.2095C784.686 63.8515 784.073 64.6906 783.606 65.7267V82.931H779.732V59.2477H783.387Z" fill="black"/>
<path d="M813.024 53.5129V59.2477H816.591V62.3777H813.024V77.0649C813.024 77.9988 813.177 78.7065 813.483 79.1881C813.79 79.6696 814.315 79.9104 815.059 79.9104C815.57 79.9104 816.088 79.8228 816.613 79.6477L816.569 82.931C815.694 83.2228 814.796 83.3688 813.877 83.3688C812.345 83.3688 811.178 82.8215 810.375 81.7271C809.572 80.6327 809.171 79.0859 809.171 77.0868V62.3777H805.56V59.2477H809.171V53.5129H813.024Z" fill="black"/>
<path d="M836.181 83.3688C833.233 83.3688 830.971 82.4932 829.395 80.7421C827.819 78.9765 827.017 76.3936 826.987 72.9936V70.1262C826.987 66.5949 827.754 63.8297 829.286 61.8305C830.833 59.8168 832.985 58.8099 835.743 58.8099C838.515 58.8099 840.587 59.6927 841.959 61.4584C843.331 63.2241 844.031 65.9747 844.06 69.7104V72.2494H830.84V72.7966C830.84 75.3357 831.314 77.1816 832.263 78.3344C833.226 79.4872 834.605 80.0636 836.4 80.0636C837.538 80.0636 838.537 79.852 839.398 79.4288C840.274 78.9911 841.091 78.3052 841.85 77.3713L843.863 79.8228C842.185 82.1868 839.624 83.3688 836.181 83.3688ZM835.743 62.1369C834.138 62.1369 832.948 62.6915 832.175 63.8005C831.402 64.8949 830.964 66.6022 830.862 68.9224H840.186V68.397C840.084 66.1498 839.675 64.5447 838.96 63.5816C838.26 62.6185 837.187 62.1369 835.743 62.1369Z" fill="black"/>
<path d="M859.403 82.931H855.529V49.3103H859.403V82.931Z" fill="black"/>
<path d="M876.191 82.931H872.317V59.2477H876.191V82.931ZM876.497 52.9657C876.497 53.6223 876.315 54.1695 875.95 54.6073C875.585 55.0451 875.031 55.264 874.287 55.264C873.557 55.264 873.01 55.0451 872.645 54.6073C872.28 54.1695 872.098 53.6223 872.098 52.9657C872.098 52.309 872.28 51.7545 872.645 51.3022C873.01 50.8498 873.557 50.6236 874.287 50.6236C875.016 50.6236 875.564 50.8571 875.928 51.324C876.308 51.7764 876.497 52.3236 876.497 52.9657Z" fill="black"/>
<path d="M888.032 70.0168C888.032 66.3249 888.703 63.5378 890.046 61.6554C891.388 59.7584 893.351 58.8099 895.934 58.8099C898.341 58.8099 900.173 59.8387 901.428 61.8962L901.625 59.2477H905.127V83.1499C905.127 86.0829 904.375 88.3301 902.872 89.8915C901.369 91.4675 899.275 92.2555 896.59 92.2555C895.423 92.2555 894.109 91.9636 892.65 91.3799C891.206 90.8108 890.118 90.1031 889.389 89.2568L890.965 86.5864C892.57 88.1623 894.343 88.9503 896.284 88.9503C899.509 88.9503 901.165 87.1919 901.252 83.6752V80.5889C899.997 82.4421 898.217 83.3688 895.912 83.3688C893.46 83.3688 891.549 82.4494 890.177 80.6108C888.805 78.7576 888.09 76.1018 888.032 72.6434V70.0168ZM891.906 72.2275C891.906 74.8833 892.293 76.8387 893.066 78.0936C893.854 79.334 895.138 79.9542 896.918 79.9542C898.845 79.9542 900.289 78.9692 901.252 76.9992V65.1576C900.246 63.2168 898.815 62.2464 896.962 62.2464C895.182 62.2464 893.898 62.8739 893.11 64.1288C892.322 65.3691 891.921 67.2807 891.906 69.8636V72.2275Z" fill="black"/>
<path d="M925.876 83.3688C922.928 83.3688 920.667 82.4932 919.091 80.7421C917.515 78.9765 916.712 76.3936 916.683 72.9936V70.1262C916.683 66.5949 917.449 63.8297 918.981 61.8305C920.528 59.8168 922.68 58.8099 925.438 58.8099C928.211 58.8099 930.283 59.6927 931.655 61.4584C933.026 63.2241 933.727 65.9747 933.756 69.7104V72.2494H920.535V72.7966C920.535 75.3357 921.01 77.1816 921.958 78.3344C922.921 79.4872 924.3 80.0636 926.095 80.0636C927.233 80.0636 928.233 79.852 929.094 79.4288C929.969 78.9911 930.786 78.3052 931.545 77.3713L933.559 79.8228C931.881 82.1868 929.32 83.3688 925.876 83.3688ZM925.438 62.1369C923.833 62.1369 922.644 62.6915 921.87 63.8005C921.097 64.8949 920.659 66.6022 920.557 68.9224H929.882V68.397C929.78 66.1498 929.371 64.5447 928.656 63.5816C927.955 62.6185 926.883 62.1369 925.438 62.1369Z" fill="black"/>
<path d="M948.574 59.2477L948.683 61.8086C950.186 59.8095 952.105 58.8099 954.44 58.8099C958.628 58.8099 960.751 61.6043 960.809 67.1932V82.931H956.957V67.3683C956.957 65.5151 956.643 64.2018 956.016 63.4284C955.403 62.6404 954.476 62.2464 953.236 62.2464C952.273 62.2464 951.404 62.5674 950.631 63.2095C949.872 63.8515 949.259 64.6906 948.792 65.7267V82.931H944.918V59.2477H948.574Z" fill="black"/>
<path d="M978.21 53.5129V59.2477H981.777V62.3777H978.21V77.0649C978.21 77.9988 978.363 78.7065 978.669 79.1881C978.976 79.6696 979.501 79.9104 980.245 79.9104C980.756 79.9104 981.274 79.8228 981.799 79.6477L981.756 82.931C980.88 83.2228 979.983 83.3688 979.063 83.3688C977.531 83.3688 976.364 82.8215 975.561 81.7271C974.759 80.6327 974.357 79.0859 974.357 77.0868V62.3777H970.746V59.2477H974.357V53.5129H978.21Z" fill="black"/>
<path d="M1001.37 83.3688C998.419 83.3688 996.157 82.4932 994.581 80.7421C993.005 78.9765 992.203 76.3936 992.174 72.9936V70.1262C992.174 66.5949 992.94 63.8297 994.472 61.8305C996.019 59.8168 998.171 58.8099 1000.93 58.8099C1003.7 58.8099 1005.77 59.6927 1007.15 61.4584C1008.52 63.2241 1009.22 65.9747 1009.25 69.7104V72.2494H996.026V72.7966C996.026 75.3357 996.5 77.1816 997.449 78.3344C998.412 79.4872 999.791 80.0636 1001.59 80.0636C1002.72 80.0636 1003.72 79.852 1004.58 79.4288C1005.46 78.9911 1006.28 78.3052 1007.04 77.3713L1009.05 79.8228C1007.37 82.1868 1004.81 83.3688 1001.37 83.3688ZM1000.93 62.1369C999.324 62.1369 998.135 62.6915 997.361 63.8005C996.588 64.8949 996.15 66.6022 996.048 68.9224H1005.37V68.397C1005.27 66.1498 1004.86 64.5447 1004.15 63.5816C1003.45 62.6185 1002.37 62.1369 1000.93 62.1369Z" fill="black"/>
</svg>
