<svg width="105" height="105" viewBox="0 0 105 105" fill="none" xmlns="http://www.w3.org/2000/svg">
<path d="M7.29398 7.48584H97.6621V97.8539H7.29398V7.48584Z" fill="#EC1E1E"/>
<path d="M78.1182 27.0015C77.5725 26.4558 76.6897 26.4489 76.1356 26.9861L71.2307 31.7409C68.1069 34.7692 63.2021 34.6895 59.1228 33.1767C54.1875 31.3464 48.7064 31.4163 43.8107 33.3912C40.1755 34.8577 35.6971 34.6981 33.1241 31.7408L29.1366 27.1578C28.6003 26.5414 27.654 26.5085 27.0762 27.0863V27.0863C26.5525 27.61 26.5233 28.4497 27.0095 29.0085L31.1263 33.7402C33.7975 36.8103 33.6028 41.3477 32.0802 45.1217C30.0361 50.1886 30.03 55.8867 32.067 60.9594C33.5924 64.758 33.8003 69.3187 31.1264 72.4181L27.0014 77.1993C26.5192 77.7583 26.55 78.5945 27.072 79.1165V79.1165C27.6512 79.6957 28.6005 79.6608 29.1356 79.0406L33.1241 74.4175C35.694 71.4388 40.1921 71.2683 43.8429 72.734C48.8162 74.7306 54.3944 74.766 59.391 72.835C63.248 71.3445 67.9454 71.4026 70.7753 74.4176L75.1946 79.1261C75.7405 79.7077 76.6593 79.7223 77.2233 79.1583V79.1583C77.7625 78.619 77.7763 77.749 77.2544 77.1929L72.7734 72.4187C69.8948 69.3518 70.0065 64.6265 71.5226 60.7031C73.3849 55.8838 73.4205 50.5201 71.6248 45.6782C70.1246 41.633 70.1317 36.7423 73.2295 33.7392L78.1026 29.0152C78.6691 28.4661 78.6761 27.5594 78.1182 27.0015V27.0015ZM68.3102 61.0017C67.1929 63.3367 64.1339 63.4471 62.3035 61.6168L60.1595 59.4727C59.6076 58.9209 58.7128 58.9209 58.1609 59.4727V59.4727C57.6091 60.0246 57.6091 60.9194 58.1609 61.4712L60.305 63.6153C62.1353 65.4457 62.0249 68.5047 59.6899 69.622C54.6827 72.0179 48.8065 72.018 43.7993 69.622C41.4643 68.5047 41.3538 65.4457 43.1842 63.6153L45.3283 61.4712C45.8801 60.9194 45.8801 60.0246 45.3283 59.4727V59.4727C44.7764 58.9209 43.8816 58.9209 43.3297 59.4727L41.1857 61.6168C39.3553 63.4472 36.2963 63.3367 35.179 61.0017C32.783 55.9945 32.783 50.1183 35.179 45.1111C36.2963 42.7761 39.3553 42.6656 41.1857 44.496L43.3297 46.64C43.8816 47.1919 44.7764 47.1919 45.3283 46.64V46.64C45.8801 46.0882 45.8801 45.1934 45.3283 44.6415L43.1842 42.4975C41.3538 40.6671 41.4643 37.6081 43.7993 36.4908C48.8065 34.0948 54.6827 34.0948 59.6899 36.4908C62.0249 37.6081 62.1354 40.6671 60.305 42.4975L58.1609 44.6415C57.6091 45.1934 57.6091 46.0882 58.1609 46.64V46.64C58.7128 47.1919 59.6076 47.1919 60.1595 46.64L62.3035 44.496C64.1339 42.6656 67.1929 42.7761 68.3102 45.1111C70.7062 50.1183 70.7062 55.9945 68.3102 61.0017Z" fill="white"/>
<path fill-rule="evenodd" clip-rule="evenodd" d="M70.9397 31.4406L75.8445 26.6858C76.5627 25.9896 77.7067 25.9984 78.414 26.7058C79.1371 27.4288 79.128 28.6038 78.3938 29.3156L73.5207 34.0396C70.5967 36.874 70.5422 41.5559 72.0171 45.5327C73.8483 50.4703 73.812 55.9394 71.9129 60.8539C70.4226 64.7104 70.3599 69.236 73.0785 72.1325L77.5594 76.9066C78.2359 77.6274 78.2181 78.7551 77.5191 79.454C76.7881 80.1851 75.5972 80.1662 74.8897 79.4124L70.4703 74.7039C67.8082 71.8676 63.3236 71.7638 59.5419 73.2252C54.4465 75.1943 48.7587 75.1582 43.6871 73.1222C40.1216 71.6908 35.8458 71.9032 33.4409 74.6907L29.4524 79.3138C28.7585 80.1181 27.5274 80.1634 26.7763 79.4123C26.0994 78.7354 26.0595 77.6509 26.6848 76.9261L30.8097 72.1449C33.3357 69.2169 33.1779 64.8479 31.6789 61.1153C29.6016 55.9423 29.6079 50.1323 31.6924 44.9652C33.1878 41.2584 33.3329 36.9134 30.8108 34.0147L26.694 29.2831C26.0636 28.5585 26.1014 27.4697 26.7805 26.7905C27.5297 26.0413 28.7568 26.0839 29.4522 26.8832L33.4398 31.4663C35.8476 34.2336 40.1043 34.4354 43.6543 33.0033C48.6468 30.9893 54.2356 30.9181 59.2683 32.7845C63.2833 34.2735 67.9857 34.3042 70.9397 31.4406ZM60.4553 59.177L62.5993 61.321C63.4304 62.1521 64.5335 62.5349 65.5409 62.4543C66.5395 62.3744 67.4444 61.842 67.9329 60.8211C70.2743 55.9281 70.2743 50.1847 67.9329 45.2916C67.4445 44.2708 66.5395 43.7384 65.5409 43.6585C64.5335 43.5779 63.4304 43.9607 62.5993 44.7918L60.4553 46.9358C59.7401 47.6511 58.5804 47.651 57.8652 46.9358C57.15 46.2206 57.15 45.061 57.8652 44.3458L60.0093 42.2017C60.8404 41.3706 61.2232 40.2675 61.1426 39.2601C61.0626 38.2615 60.5303 37.3566 59.5094 36.8681C54.6164 34.5268 48.8729 34.5268 43.9799 36.8681C42.959 37.3566 42.4267 38.2615 42.3467 39.2601C42.2661 40.2675 42.6489 41.3706 43.4801 42.2017L45.6241 44.3458C46.3393 45.061 46.3393 46.2206 45.6241 46.9358C44.9089 47.651 43.7492 47.651 43.034 46.9358L40.89 44.7918C40.0589 43.9607 38.9558 43.5779 37.9484 43.6585C36.9498 43.7384 36.0449 44.2708 35.5564 45.2916C33.215 50.1847 33.215 55.9281 35.5564 60.8211C36.0449 61.842 36.9498 62.3744 37.9484 62.4543C38.9558 62.5349 40.0589 62.1521 40.89 61.321L43.034 59.177C43.7492 58.4617 44.9089 58.4617 45.6241 59.177C46.3393 59.8922 46.3393 61.0518 45.6241 61.767L43.4801 63.9111C42.6489 64.7422 42.2661 65.8452 42.3468 66.8527C42.4267 67.8513 42.959 68.7562 43.9799 69.2447C48.8729 71.586 54.6164 71.586 59.5094 69.2447C60.5303 68.7562 61.0626 67.8512 61.1425 66.8527C61.2232 65.8452 60.8404 64.7422 60.0092 63.911L57.8652 61.767C57.15 61.0518 57.15 59.8922 57.8652 59.177C58.5804 58.4617 59.7401 58.4617 60.4553 59.177ZM76.1356 26.9861C76.6898 26.4489 77.5725 26.4558 78.1183 27.0015C78.6762 27.5594 78.6691 28.4661 78.1026 29.0152L73.2295 33.7392C70.1317 36.7423 70.1246 41.633 71.6249 45.6782C73.4206 50.5201 73.385 55.8838 71.5227 60.7031C70.0065 64.6265 69.8949 69.3518 72.7735 72.4187L77.2544 77.1929C77.7764 77.749 77.7626 78.619 77.2233 79.1583C76.6593 79.7223 75.7405 79.7077 75.1947 79.1261L70.7753 74.4176C67.9455 71.4026 63.2481 71.3445 59.3911 72.835C54.3944 74.766 48.8163 74.7306 43.843 72.734C40.1922 71.2683 35.694 71.4388 33.1242 74.4175L29.1357 79.0406C28.6006 79.6608 27.6513 79.6957 27.072 79.1165C26.5501 78.5945 26.5193 77.7583 27.0015 77.1993L31.1264 72.4181C33.8004 69.3187 33.5925 64.758 32.0671 60.9594C30.03 55.8867 30.0362 50.1886 32.0803 45.1217C33.6028 41.3477 33.7976 36.8103 31.1264 33.7402L27.0096 29.0085C26.5234 28.4497 26.5525 27.61 27.0763 27.0863C27.654 26.5085 28.6004 26.5414 29.1367 27.1578L33.1242 31.7408C35.6972 34.6981 40.1755 34.8577 43.8108 33.3912C48.7065 31.4163 54.1876 31.3464 59.1229 33.1767C63.2021 34.6895 68.1069 34.7692 71.2308 31.7409L76.1356 26.9861ZM62.3035 61.6168C64.1339 63.4471 67.1929 63.3367 68.3102 61.0017C70.7062 55.9945 70.7062 50.1183 68.3103 45.1111C67.193 42.7761 64.1339 42.6656 62.3035 44.496L60.1595 46.64C59.6076 47.1919 58.7129 47.1919 58.161 46.64C57.6091 46.0882 57.6091 45.1934 58.161 44.6415L60.305 42.4975C62.1354 40.6671 62.025 37.6081 59.6899 36.4908C54.6827 34.0948 48.8066 34.0948 43.7994 36.4908C41.4643 37.6081 41.3539 40.6671 43.1843 42.4975L45.3283 44.6415C45.8802 45.1934 45.8802 46.0882 45.3283 46.64C44.7764 47.1919 43.8817 47.1919 43.3298 46.64L41.1858 44.496C39.3554 42.6656 36.2964 42.7761 35.179 45.1111C32.7831 50.1183 32.7831 55.9945 35.1791 61.0017C36.2964 63.3367 39.3554 63.4472 41.1858 61.6168L43.3298 59.4727C43.8817 58.9209 44.7764 58.9209 45.3283 59.4727C45.8802 60.0246 45.8802 60.9194 45.3283 61.4712L43.1843 63.6153C41.3539 65.4457 41.4644 68.5047 43.7994 69.622C48.8066 72.018 54.6827 72.0179 59.6899 69.622C62.0249 68.5047 62.1354 65.4457 60.305 63.6153L58.161 61.4712C57.6091 60.9194 57.6091 60.0246 58.161 59.4727C58.7129 58.9209 59.6076 58.9209 60.1595 59.4727L62.3035 61.6168Z" fill="white"/>
<path d="M49.0023 52.6698C49.0023 52.0299 49.521 51.5112 50.1608 51.5112V51.5112C50.8007 51.5112 51.3194 52.0299 51.3194 52.6698V52.6698C51.3194 53.3097 50.8007 53.8284 50.1608 53.8284V53.8284C49.521 53.8284 49.0023 53.3097 49.0023 52.6698V52.6698Z" fill="white"/>
<path fill-rule="evenodd" clip-rule="evenodd" d="M50.1608 53.8284C49.521 53.8284 49.0023 53.3097 49.0023 52.6698C49.0023 52.0299 49.521 51.5112 50.1608 51.5112C50.8007 51.5112 51.3194 52.0299 51.3194 52.6698C51.3194 53.3097 50.8007 53.8284 50.1608 53.8284ZM50.1608 51.7758C49.6671 51.7758 49.2669 52.1761 49.2669 52.6698C49.2669 53.1635 49.6671 53.5638 50.1608 53.5638C50.6545 53.5638 51.0548 53.1635 51.0548 52.6698C51.0548 52.1761 50.6545 51.7758 50.1608 51.7758Z" fill="white"/>
</svg>
